<?xml version="1.0" encoding="utf-8"?>
<svg xmlns="http://www.w3.org/2000/svg" viewBox="0 0 30 30" width="20" height="20">
  <path d="M15 4C14.715 4 14.444219 4.0629219 14.199219 4.1699219L4.6445312 8.0722656C4.2695312 8.2162656 4 8.574 4 9C4 9.426 4.2695312 9.7837344 4.6445312 9.9277344L14.242188 13.849609C14.475187 13.945609 14.731 14 15 14C15.269 14 15.525766 13.945609 15.759766 13.849609L25.357422 9.9277344C25.731422 9.7837344 26 9.426 26 9C26 8.574 25.730469 8.2162656 25.355469 8.0722656L15.800781 4.1699219C15.555781 4.0619219 15.285 4 15 4 z M 7.0722656 13.080078L4.6445312 14.072266C4.2695313 14.216266 4 14.574 4 15C4 15.426 4.2695312 15.783734 4.6445312 15.927734L14.242188 19.849609C14.475187 19.945609 14.731 20 15 20C15.269 20 15.525766 19.945609 15.759766 19.849609L25.357422 15.927734C25.731422 15.783734 26 15.426 26 15C26 14.574 25.730469 14.216266 25.355469 14.072266L22.927734 13.080078L16.517578 15.699219C16.031578 15.899219 15.521 16 15 16C14.479 16 13.967375 15.898219 13.484375 15.699219L7.0722656 13.080078 z M 7.0722656 19.080078L4.6445312 20.072266C4.2695313 20.216266 4 20.574 4 21C4 21.426 4.2695312 21.783734 4.6445312 21.927734L14.242188 25.849609C14.475187 25.945609 14.731 26 15 26C15.269 26 15.525766 25.945609 15.759766 25.849609L25.357422 21.927734C25.731422 21.783734 26 21.426 26 21C26 20.574 25.730469 20.216266 25.355469 20.072266L22.927734 19.080078L16.517578 21.699219C16.031578 21.899219 15.521 22 15 22C14.479 22 13.967375 21.898219 13.484375 21.699219L7.0722656 19.080078 z" fill="#888" />
</svg>