<?xml version="1.0" encoding="utf-8"?>
<svg xmlns="http://www.w3.org/2000/svg" viewBox="0 0 50 50" width="20" height="20">
  <path d="M43.125 2C41.878906 2 40.636719 2.488281 39.6875 3.4375L38.875 4.25L45.75 11.125C45.746094 11.128906 46.5625 10.3125 46.5625 10.3125C48.464844 8.410156 48.460938 5.335938 46.5625 3.4375C45.609375 2.488281 44.371094 2 43.125 2 Z M 37.34375 6.03125C37.117188 6.0625 36.90625 6.175781 36.75 6.34375L4.3125 38.8125C4.183594 38.929688 4.085938 39.082031 4.03125 39.25L2.03125 46.75C1.941406 47.09375 2.042969 47.457031 2.292969 47.707031C2.542969 47.957031 2.90625 48.058594 3.25 47.96875L10.75 45.96875C10.917969 45.914063 11.070313 45.816406 11.1875 45.6875L43.65625 13.25C44.054688 12.863281 44.058594 12.226563 43.671875 11.828125C43.285156 11.429688 42.648438 11.425781 42.25 11.8125L9.96875 44.09375L5.90625 40.03125L38.1875 7.75C38.488281 7.460938 38.578125 7.011719 38.410156 6.628906C38.242188 6.246094 37.855469 6.007813 37.4375 6.03125C37.40625 6.03125 37.375 6.03125 37.34375 6.03125Z" fill="#888" />
</svg>