<?xml version="1.0" encoding="utf-8"?>
<svg xmlns="http://www.w3.org/2000/svg" viewBox="0 0 50 50" width="20" height="20">
  <path d="M3 0C1.355469 0 0 1.355469 0 3L0 47C0 48.644531 1.355469 50 3 50L37 50C38.644531 50 40 48.644531 40 47L40 39L38 41L38 47C38 47.5625 37.5625 48 37 48L3 48C2.4375 48 2 47.5625 2 47L2 3C2 2.433594 2.433594 2 3 2L37 2C37.5625 2 38 2.4375 38 3L38 9L40 11L40 3C40 1.355469 38.644531 0 37 0 Z M 37.84375 13.09375C37.46875 13.160156 37.167969 13.433594 37.0625 13.796875C36.957031 14.164063 37.066406 14.554688 37.34375 14.8125L46.53125 24L17 24C16.96875 24 16.9375 24 16.90625 24C16.355469 24.027344 15.925781 24.496094 15.953125 25.046875C15.980469 25.597656 16.449219 26.027344 17 26L46.53125 26L37.34375 35.1875C37.046875 35.429688 36.910156 35.816406 36.996094 36.191406C37.082031 36.5625 37.375 36.855469 37.746094 36.941406C38.121094 37.027344 38.507813 36.890625 38.75 36.59375L49.65625 25.71875L50.34375 25L49.65625 24.28125L38.75 13.40625C38.542969 13.183594 38.242188 13.070313 37.9375 13.09375C37.90625 13.09375 37.875 13.09375 37.84375 13.09375Z" fill="#FFFFFF" />
</svg>