<svg xmlns="http://www.w3.org/2000/svg" width="26.21" height="24.009" viewBox="0 0 26.21 24.009">
  <g id="Group_36" data-name="Group 36" transform="translate(-295.978 -383.44)">
    <g id="Group_33" data-name="Group 33" transform="translate(-945.918 656.445)">
      <path id="Path_228" data-name="Path 228" d="M1,12c0,5.014.619,7.56,2.168,8.979a7.107,7.107,0,0,0,3.506,1.558,33.428,33.428,0,0,0,6.431.467,33.427,33.427,0,0,0,6.431-.467,7.107,7.107,0,0,0,3.506-1.558c1.549-1.42,2.168-3.965,2.168-8.979s-.619-7.56-2.168-8.979a7.107,7.107,0,0,0-3.506-1.558A33.434,33.434,0,0,0,13.1,1a25.554,25.554,0,0,0-7.827.838A5.064,5.064,0,0,0,1.972,4.744C1.278,6.323,1,8.615,1,12Z" transform="translate(1241.895 -273.004)" fill="none" stroke="#afaeb4" stroke-linecap="round" stroke-linejoin="round" stroke-width="2"/>
      <path id="Path_442" data-name="Path 442" d="M24.385,10s-4.1,4-8.193,4S8,10,8,10" transform="translate(1238.807 -274)" fill="none" stroke="#f04770" stroke-linecap="round" stroke-linejoin="round" stroke-width="2"/>
    </g>
  </g>
</svg>
