<svg xmlns="http://www.w3.org/2000/svg" width="24.001" height="24.001" viewBox="0 0 24.001 24.001">
  <g id="Group_35" data-name="Group 35" transform="translate(0)">
    <g id="User_Scanning" data-name="User Scanning" transform="translate(0)">
      <path id="Path_391" data-name="Path 391" d="M2,15.011A1.024,1.024,0,0,0,.988,14.05.983.983,0,0,0,0,15.092C.427,21.487,2.514,23.573,8.908,24a.983.983,0,0,0,1.042-.986A1.024,1.024,0,0,0,8.989,22a18.058,18.058,0,0,1-2.664-.352A5.244,5.244,0,0,1,3.631,20.37a5.245,5.245,0,0,1-1.277-2.695A18.06,18.06,0,0,1,2,15.011Zm19.912,0a1.024,1.024,0,0,1,1.013-.961.983.983,0,0,1,.986,1.042C23.488,21.487,21.4,23.573,15.006,24a.983.983,0,0,1-1.042-.986A1.024,1.024,0,0,1,14.925,22a18.06,18.06,0,0,0,2.664-.352,5.244,5.244,0,0,0,2.695-1.277,5.244,5.244,0,0,0,1.277-2.695A18.06,18.06,0,0,0,21.913,15.011ZM24,12.089v0Zm-.088-3.095a.983.983,0,0,1-.986,1.042,1.024,1.024,0,0,1-1.013-.961,18.058,18.058,0,0,0-.352-2.664,5.244,5.244,0,0,0-1.277-2.695,5.245,5.245,0,0,0-2.695-1.277,18.058,18.058,0,0,0-2.664-.352,1.024,1.024,0,0,1-.961-1.013A.983.983,0,0,1,15.006.088C21.4.513,23.488,2.6,23.913,8.994ZM2,9.075a1.023,1.023,0,0,1-1.013.961A.983.983,0,0,1,0,8.994C.427,2.6,2.514.513,8.908.088a.983.983,0,0,1,1.042.986,1.023,1.023,0,0,1-.961,1.013,18.056,18.056,0,0,0-2.664.352A5.244,5.244,0,0,0,3.631,3.717,5.244,5.244,0,0,0,2.354,6.411,18.058,18.058,0,0,0,2,9.075ZM11.957,0h0Z" transform="translate(0)" fill="#afaeb4" fill-rule="evenodd"/>
      <path id="Path_392" data-name="Path 392" d="M7,15.086a2.806,2.806,0,0,0,.156,1.1.83.83,0,0,0,.438.427,4.593,4.593,0,0,0,1.494.353A27.538,27.538,0,0,0,12,17.086a27.536,27.536,0,0,0,2.911-.115,4.593,4.593,0,0,0,1.494-.353.83.83,0,0,0,.438-.427,2.806,2.806,0,0,0,.156-1.1,2.806,2.806,0,0,0-.156-1.1.83.83,0,0,0-.438-.427,4.593,4.593,0,0,0-1.494-.353A27.541,27.541,0,0,0,12,13.086a27.542,27.542,0,0,0-2.912.115,4.593,4.593,0,0,0-1.494.353.831.831,0,0,0-.438.427A2.807,2.807,0,0,0,7,15.086Z" transform="translate(0)" fill="none" stroke="#f04770" stroke-linecap="round" stroke-linejoin="round" stroke-width="2"/>
      <circle id="Ellipse_36" data-name="Ellipse 36" cx="2" cy="2" r="2" transform="translate(14 10.086) rotate(180)" fill="none" stroke="#f04770" stroke-width="2"/>
    </g>
  </g>
</svg>
