<svg xmlns="http://www.w3.org/2000/svg" width="27.045" height="27.561" viewBox="0 0 27.045 27.561">
  <g id="Group_37" data-name="Group 37" transform="translate(-356.978 -381.44)">
    <g id="Group_34" data-name="Group 34" transform="translate(-1682.199 -10.75)">
      <path id="Path_77" data-name="Path 77" d="M2051.18,396.744a32.248,32.248,0,0,1,5.855.4,6.55,6.55,0,0,1,3.19,1.352c1.392,1.225,1.955,3.448,1.955,7.915,0,2.881-.259,5-.955,6.383a3.33,3.33,0,0,1-1.29,1.44,4.4,4.4,0,0,1-2.255.51,5.167,5.167,0,0,0-2.995.8,5.364,5.364,0,0,0-1.505,1.664l-.141.222a4.317,4.317,0,0,1-.7.944,2,2,0,0,1-2.315,0,4.285,4.285,0,0,1-.7-.944l-.144-.223a5.36,5.36,0,0,0-1.5-1.664,5.169,5.169,0,0,0-2.995-.8,4.3,4.3,0,0,1-2.246-.521,3.393,3.393,0,0,1-1.3-1.469c-.7-1.4-.957-3.522-.957-6.344,0-4.415.562-6.638,1.959-7.88a6.566,6.566,0,0,1,3.194-1.374A31.313,31.313,0,0,1,2051.18,396.744Z" fill="none" stroke="#afaeb4" stroke-linecap="round" stroke-linejoin="round" stroke-width="2"/>
      <path id="Path_77-2" data-name="Path 77" d="M2043.708,397.6a5.067,5.067,0,0,1,1.47-2.618,6.557,6.557,0,0,1,3.194-1.374,31.311,31.311,0,0,1,5.85-.412,32.143,32.143,0,0,1,5.855.4,6.532,6.532,0,0,1,3.19,1.352c1.392,1.225,1.955,3.448,1.955,7.915,0,2.881-.259,5-.955,6.383a3.552,3.552,0,0,1-2.467,1.831" fill="none" stroke="#afaeb4" stroke-linecap="round" stroke-linejoin="round" stroke-width="2"/>
      <circle id="Ellipse_9" data-name="Ellipse 9" cx="1" cy="1" r="1" transform="translate(2046.18 405.744)" fill="#f04770"/>
      <circle id="Ellipse_10" data-name="Ellipse 10" cx="1" cy="1" r="1" transform="translate(2050.18 405.744)" fill="#f04770"/>
      <circle id="Ellipse_11" data-name="Ellipse 11" cx="1" cy="1" r="1" transform="translate(2054.18 405.744)" fill="#f04770"/>
    </g>
  </g>
</svg>
