<svg xmlns="http://www.w3.org/2000/svg" width="95.3" height="30.6" viewBox="0 0 95.3 30.6">
  <g id="Logo_P" data-name="Logo P" transform="translate(-1.1 -2.3)">
    <g id="Group_1" data-name="Group 1">
      <path id="Path_435" data-name="Path 435" d="M89.4,28.7H77.1a6.957,6.957,0,0,1-7-7V9.4a6.957,6.957,0,0,1,7-7H89.4a6.957,6.957,0,0,1,7,7V21.7A7.086,7.086,0,0,1,89.4,28.7Z" fill="#fff"/>
      <circle id="Ellipse_41" data-name="Ellipse 41" cx="4.5" cy="4.5" r="4.5" transform="translate(84.7 5.3)" fill="#f04770"/>
      <circle id="Ellipse_42" data-name="Ellipse 42" cx="4.5" cy="4.5" r="4.5" transform="translate(84.7 16.6)" fill="#f04770"/>
      <path id="Path_440" data-name="Path 440" d="M4.5,0A4.5,4.5,0,1,1,0,4.5,4.5,4.5,0,0,1,4.5,0Z" transform="translate(73 5.3)" fill="#f04770"/>
      <circle id="Ellipse_44" data-name="Ellipse 44" cx="4.5" cy="4.5" r="4.5" transform="translate(73 16.6)" fill="#f04770"/>
    </g>
    <circle id="Ellipse_45" data-name="Ellipse 45" cx="2.8" cy="2.8" r="2.8" transform="translate(59 9.3)" fill="#fff"/>
    <circle id="Ellipse_46" data-name="Ellipse 46" cx="2.8" cy="2.8" r="2.8" transform="translate(59 2.4)" fill="#fff"/>
    <circle id="Ellipse_47" data-name="Ellipse 47" cx="2.8" cy="2.8" r="2.8" transform="translate(52 2.4)" fill="#fff"/>
    <circle id="Ellipse_48" data-name="Ellipse 48" cx="2.8" cy="2.8" r="2.8" transform="translate(1.1 9.3)" fill="#fff"/>
    <path id="Path_436" data-name="Path 436" d="M12.2,28.7h-.1A2.689,2.689,0,0,1,9.4,26V5.1a2.689,2.689,0,0,1,2.7-2.7h.1a2.689,2.689,0,0,1,2.7,2.7V26A2.689,2.689,0,0,1,12.2,28.7Z" fill="#fff"/>
    <path id="Path_437" data-name="Path 437" d="M4,32.8H3.8a2.689,2.689,0,0,1-2.7-2.7V20.3a2.689,2.689,0,0,1,2.7-2.7H4a2.689,2.689,0,0,1,2.7,2.7v9.8A2.754,2.754,0,0,1,4,32.8Z" fill="#fff"/>
    <path id="Path_438" data-name="Path 438" d="M35.7,18.3a9,9,0,1,0-9,9,10.388,10.388,0,0,0,3.5-.7v3.5A2.8,2.8,0,0,0,33,32.9a2.734,2.734,0,0,0,2.8-2.8V18.7C35.6,18.6,35.7,18.4,35.7,18.3Zm-9,3.5a3.5,3.5,0,0,1,0-7,3.418,3.418,0,0,1,3.5,3.5A3.612,3.612,0,0,1,26.7,21.8Z" fill="#fff"/>
    <path id="Path_439" data-name="Path 439" d="M61.8,23.1H47.6a3.474,3.474,0,0,1-3.4-3.2V5.1a2.8,2.8,0,0,0-2.8-2.8,2.862,2.862,0,0,0-2.8,2.8V20.9a9.051,9.051,0,0,0,8.5,7.8H61.8a2.862,2.862,0,0,0,2.8-2.8A2.933,2.933,0,0,0,61.8,23.1Z" fill="#fff"/>
  </g>
</svg>
