<svg xmlns="http://www.w3.org/2000/svg" width="24.008" height="25.31" viewBox="0 0 24.008 25.31">
  <g id="wallet" transform="translate(-2091.455 -375.985)">
    <path id="Path_441" data-name="Path 441" d="M2114.407,388.005c-1.508-.087-3.1-.137-4.773-.134-1.567,0-3.064.052-4.485.134a1.73,1.73,0,0,0-1.2.5,1.688,1.688,0,0,0-.5,1.2v1.559a1.693,1.693,0,0,0,1.694,1.693c1.42.083,2.918.132,4.485.134,1.66,0,3.242-.047,4.739-.134" fill="none" stroke="#f04770" stroke-linecap="round" stroke-linejoin="round" stroke-width="2"/>
    <path id="Path_228" data-name="Path 228" d="M2092.455,390.286c0,4.556.563,6.87,1.97,8.16a6.464,6.464,0,0,0,3.186,1.415,40.39,40.39,0,0,0,11.688,0,6.458,6.458,0,0,0,3.186-1.415c1.408-1.29,1.97-3.6,1.97-8.16s-.562-6.87-1.97-8.16a6.458,6.458,0,0,0-3.186-1.415,30.417,30.417,0,0,0-5.844-.425,23.214,23.214,0,0,0-7.112.762,4.6,4.6,0,0,0-3,2.64C2092.708,385.123,2092.455,387.206,2092.455,390.286Z" fill="none" stroke="#afaeb4" stroke-linecap="round" stroke-linejoin="round" stroke-width="2"/>
    <path id="Path_228-2" data-name="Path 228" d="M2114.407,388.005c0-4.4-.871-7.838-2.231-9.084a6.245,6.245,0,0,0-3.077-1.366,29.321,29.321,0,0,0-5.644-.41,22.441,22.441,0,0,0-6.868.735,4.444,4.444,0,0,0-2.9,2.55,21.884,21.884,0,0,0-1.169,7.441" transform="translate(0 -0.134)" fill="none" stroke="#afaeb4" stroke-linecap="round" stroke-linejoin="round" stroke-width="2"/>
  </g>
</svg>
