<svg xmlns="http://www.w3.org/2000/svg" width="336.671" height="377.332" viewBox="0 0 336.671 377.332">
  <g id="Group_2" data-name="Group 2" transform="translate(-1512.165 -373.353)">
    <g id="Group_1" data-name="Group 1" transform="translate(1512.165 373.353)">
      <path id="Path_1" data-name="Path 1" d="M-649.857,84.055s27.2-14.9,34.631-20.111c5.371-3.764,3.694-6.991.4-17.709s-10.494-30.352-10.494-30.352l4.79-.769a53.188,53.188,0,0,0-3.23-8.642c21.959,2.192,43.87,18.618,45.418,20.579,1.649,2.088,13.821,47.247,15.469,53.136s-.027,9.381-10.165,15.454-30.046,15.353-30.046,15.353l-41.688-23.562c-3.08,1.794-5.085,2.954-5.085,2.954Z" transform="translate(841.081 140.917)" fill="#eadce1"/>
      <path id="Path_2" data-name="Path 2" d="M-652.757,107.554s27.733-15.66,34.991-20.219c5.555-3.49,3.329-7.373.035-18.094s-10.493-30.352-10.493-30.352l6.63-1.065s7.721,23.672,10.471,32.729,4.624,16.1-3.632,21.306c-11.226,7.079-38,22.031-38,22.031Z" transform="translate(890.754 144.356)" fill="#9b8790"/>
      <path id="Path_3" data-name="Path 3" d="M-566.36,103.328v6.332l-46.773-26.941V76.387Z" transform="translate(804.361 148.585)" fill="#c1aeb6"/>
      <path id="Path_4" data-name="Path 4" d="M-685.1,83.469l-8.284,4.783-4.934-7.662,10.929-6.6Z" transform="translate(1017.629 148.322)" fill="#8bcad8"/>
      <path id="Path_5" data-name="Path 5" d="M-553.717-125.75l-8.766,5.1,15.665,3.983Z" transform="translate(728.614 126.416)" fill="#8bcad8"/>
      <path id="Path_6" data-name="Path 6" d="M-535.873-29.1V98.245a8.232,8.232,0,0,1-8.233,8.232,8.233,8.233,0,0,1-4.116-1.1L-696.17,19.958a11.769,11.769,0,0,1-5.881-10.193V-118.856a7.493,7.493,0,0,1,7.494-7.494,7.492,7.492,0,0,1,3.747,1L-541.756-39.29A11.77,11.77,0,0,1-535.873-29.1Z" transform="translate(872.544 126.35)" fill="#c1aeb6"/>
      <path id="Path_7" data-name="Path 7" d="M-528.421-24.729V102.614a8.232,8.232,0,0,1-8.233,8.232,8.233,8.233,0,0,1-4.116-1.1l-147.95-85.416A11.773,11.773,0,0,1-694.6,14.135V-114.487a7.493,7.493,0,0,1,7.494-7.494,7.492,7.492,0,0,1,3.747,1L-534.3-34.921A11.764,11.764,0,0,1-528.421-24.729Z" transform="translate(856.823 126.829)" fill="#eadce1"/>
      <path id="Path_8" data-name="Path 8" d="M-687.611-115.275l132.763,76.732,17.909,10.351V102.671L-687.611,15.585Z" transform="translate(857.587 127.565)" fill="#fff"/>
      <path id="Path_9" data-name="Path 9" d="M-678.309-63.739-603.835-20.7V84.222L-678.31,41.176Z" transform="translate(914.161 133.217)" fill="#eadce1"/>
      <path id="Path_10" data-name="Path 10" d="M-603.785-9.3l52.207,30.173v8.058L-603.785-1.247Z" transform="translate(779.206 139.187)" fill="#c7e9f4"/>
      <path id="Path_11" data-name="Path 11" d="M-603.785-18.32l52.207,30.173V15.06l-52.207-30.174Z" transform="translate(779.206 138.198)" fill="#eadce1"/>
      <path id="Path_12" data-name="Path 12" d="M-603.785-26.367l52.207,30.173V7.013l-52.207-30.174Z" transform="translate(779.206 137.316)" fill="#eadce1"/>
      <path id="Path_13" data-name="Path 13" d="M-603.785-34.66l52.207,30.173v3.2l-52.207-30.174Z" transform="translate(779.206 136.406)" fill="#eadce1"/>
      <path id="Path_14" data-name="Path 14" d="M-603.785-42.708l52.207,30.173v3.207L-603.785-39.5Z" transform="translate(779.206 135.523)" fill="#eadce1"/>
      <path id="Path_15" data-name="Path 15" d="M-648.767-69.241l35.119,20.3V55.976l-35.118-20.3Z" transform="translate(891.191 132.613)" fill="#fff"/>
      <path id="Path_16" data-name="Path 16" d="M-673.233-13.3-655.425-3.13V8.586L-673.233-1.587Z" transform="translate(960.117 138.748)" fill="#c1aeb6"/>
      <path id="Path_17" data-name="Path 17" d="M-673.233,2.93-655.425,13.1V24.819l-17.808-10.173Z" transform="translate(960.117 140.529)" fill="#c1aeb6"/>
      <path id="Path_18" data-name="Path 18" d="M-673.2,20.008l17.811,10.176V41.9l-17.808-10.173Z" transform="translate(960.034 142.402)" fill="#c1aeb6"/>
      <path id="Path_19" data-name="Path 19" d="M-673.274,37.579l17.808,10.174V59.468l-17.808-10.173Z" transform="translate(960.204 144.329)" fill="#c1aeb6"/>
      <path id="Path_20" data-name="Path 20" d="M-687.611,16.725l38.9-22.405V-37.05L-684.771-3.517Z" transform="translate(969.354 136.144)" fill="#dc63b4"/>
      <path id="Path_21" data-name="Path 21" d="M-515.064-30.266-649.68-108.218l-36.044,35.785L-550.97,5.382Z" transform="translate(833.617 128.339)" fill="#f588d1"/>
      <path id="Path_22" data-name="Path 22" d="M-528.364-115.275l-36.047,35.786,13.63,7.892,35.906-35.842Z" transform="translate(698.81 127.565)" fill="#c4258f"/>
      <path id="Path_23" data-name="Path 23" d="M-553.013-101.005-589.058-65.22l13.629,7.892,35.907-35.842Z" transform="translate(750.807 129.13)" fill="#c4258f"/>
      <path id="Path_24" data-name="Path 24" d="M-577.656-86.767-613.7-50.982l13.629,7.889,35.907-35.842Z" transform="translate(802.794 130.691)" fill="#c4258f"/>
      <path id="Path_25" data-name="Path 25" d="M-602.3-72.547l-36.044,35.785,13.63,7.892,35.907-35.842Z" transform="translate(854.784 132.251)" fill="#c4258f"/>
      <path id="Path_26" data-name="Path 26" d="M-626.911-58.3l-36.044,35.785,13.63,7.893,35.907-35.843Z" transform="translate(906.705 133.813)" fill="#c4258f"/>
      <path id="Path_27" data-name="Path 27" d="M-651.566-44.106-687.611-8.321l13.629,7.892,35.907-35.847Z" transform="translate(958.722 135.37)" fill="#c4258f"/>
      <path id="Path_28" data-name="Path 28" d="M-544.417-75.914v12.148c0,5.015,3.076,10.894,6.837,13.063s6.837-.154,6.837-5.168V-68.02Z" transform="translate(692.492 131.882)" fill="#dc63b4"/>
      <path id="Path_29" data-name="Path 29" d="M-569.06-61.682v12.149c0,5.014,3.076,10.891,6.837,13.062s6.836-.154,6.836-5.168V-53.788Z" transform="translate(744.482 133.442)" fill="#dc63b4"/>
      <path id="Path_30" data-name="Path 30" d="M-593.7-47.445V-35.3c0,5.014,3.076,10.891,6.837,13.062s6.836-.154,6.836-5.168V-39.551Z" transform="translate(796.462 135.004)" fill="#dc63b4"/>
      <path id="Path_31" data-name="Path 31" d="M-618.347-33.236v12.149c0,5.014,3.075,10.89,6.836,13.062s6.837-.154,6.837-5.168V-25.342Z" transform="translate(848.461 136.562)" fill="#dc63b4"/>
      <path id="Path_32" data-name="Path 32" d="M-642.99-19.029V-6.88c0,5.014,3.076,10.89,6.837,13.062s6.837-.154,6.837-5.168V-11.135Z" transform="translate(900.449 138.12)" fill="#dc63b4"/>
      <path id="Path_33" data-name="Path 33" d="M-532.095-83.062v12.15c0,5.012,3.077,10.89,6.837,13.062s6.836-.156,6.836-5.169V-75.167Z" transform="translate(666.498 131.098)" fill="#9b0d73"/>
      <path id="Path_34" data-name="Path 34" d="M-556.738-68.773v12.149c0,5.014,3.076,10.891,6.836,13.062s6.837-.154,6.837-5.168V-60.879Z" transform="translate(718.486 132.665)" fill="#9b0d73"/>
      <path id="Path_35" data-name="Path 35" d="M-581.382-54.567v12.152c0,5.014,3.076,10.89,6.837,13.062s6.837-.154,6.837-5.168V-46.673Z" transform="translate(770.476 134.223)" fill="#9b0d73"/>
      <path id="Path_36" data-name="Path 36" d="M-606.026-40.33v12.151c0,5.014,3.076,10.891,6.837,13.062s6.837-.154,6.837-5.168V-32.434Z" transform="translate(822.467 135.784)" fill="#9b0d73"/>
      <path id="Path_37" data-name="Path 37" d="M-630.668-26.156v12.149c0,5.014,3.076,10.891,6.837,13.062S-617-1.1-617-6.113V-18.262Z" transform="translate(874.455 137.339)" fill="#9b0d73"/>
      <path id="Path_38" data-name="Path 38" d="M-655.312-11.9V.249c0,5.014,3.076,10.891,6.836,13.063s6.837-.156,6.837-5.168V-4.006Z" transform="translate(926.445 138.902)" fill="#9b0d73"/>
      <path id="Path_39" data-name="Path 39" d="M-560.476,40.473l38.253-22.083L-553.792.164l-38.252,22.083c-2.74,1.581-2.391,4.369.77,6.194L-571.2,40.027C-568.043,41.852-563.215,42.054-560.476,40.473Z" transform="translate(738.872 140.225)" fill="#9b0d73"/>
      <rect id="Rectangle_2" data-name="Rectangle 2" width="2.738" height="1.586" transform="translate(213.911 157.028)" fill="#9b0d73"/>
      <rect id="Rectangle_3" data-name="Rectangle 3" width="2.738" height="1.655" transform="translate(144.981 163.495)" fill="#9b0d73"/>
      <path id="Path_40" data-name="Path 40" d="M-545.759,4.227-543.03,5.8l-27.34,15.68,1.419.819,27.337-15.68,2.642,1.528-27.342,15.683,1.419.817,27.34-15.681L-533,11.6l-38.284,21.956,3.558,2.142,38.359-22,4.6,2.663-38.23,22.071c-2.738,1.581-7.566,1.38-10.728-.444L-593.791,26.4c-.031-.018-.051-.038-.08-.054l4.827,2.8Z" transform="translate(741.39 140.671)" fill="#c4258f"/>
      <path id="Path_41" data-name="Path 41" d="M-568.693,20.812l38.247-22.083,5.645,3.264L-568.222,26.8C-571.078,24.976-571.329,22.336-568.693,20.812Z" transform="translate(715.521 140.068)" fill="#c4258f"/>
      <path id="Path_42" data-name="Path 42" d="M-531.593,24.037l.021-.012c.078.049.139.1.222.151Z" transform="translate(678.868 142.842)" fill="#c7e9f4"/>
      <path id="Path_43" data-name="Path 43" d="M-526.617,4.507-569.9,29.423l-4.827-2.8c-.08-.048-.141-.1-.222-.151L-531.526,1.67Z" transform="translate(722.248 140.391)" fill="#c7e9f4"/>
      <path id="Path_44" data-name="Path 44" d="M-577.266,22.147l-1.42-.818,27.339-15.681,1.417.819Z" transform="translate(749.706 140.827)" fill="#fff"/>
      <path id="Path_45" data-name="Path 45" d="M-580.926,24.263l-1.419-.818L-555,7.762l1.417.819Z" transform="translate(757.422 141.059)" fill="#fff"/>
      <path id="Path_46" data-name="Path 46" d="M-586.17,34.971l-3.558-2.142,38.284-21.955,3.632,2.1Z" transform="translate(759.841 141.4)" fill="#fff"/>
      <path id="Path_47" data-name="Path 47" d="M-579.214,1.648h0l-.243-.141Z" transform="translate(779.845 140.373)" fill="#c7e9f4"/>
      <path id="Path_48" data-name="Path 48" d="M-547.1,30.206l6.224-3.594c.843-.488.738-1.338-.236-1.9l-4.5-2.6a3.662,3.662,0,0,0-3.29-.135l-6.224,3.594c-.843.486-.738,1.332.236,1.9l4.5,2.6A3.664,3.664,0,0,0-547.1,30.206Z" transform="translate(714.558 142.582)" fill="#fff"/>
      <path id="Path_49" data-name="Path 49" d="M-552.072,28.663l11.106-6.412-.9-.517-11.106,6.412Z" transform="translate(712.205 142.591)" fill="#c4258f"/>
      <path id="Path_50" data-name="Path 50" d="M-554.791,29.971l11.106-6.412-.9-.517-11.106,6.412Z" transform="translate(717.941 142.735)" fill="#c4258f"/>
      <path id="Path_51" data-name="Path 51" d="M-544.58,28.667l.742-.428-11.27-6.507-.742.429Z" transform="translate(718.273 142.591)" fill="#c4258f"/>
      <path id="Path_52" data-name="Path 52" d="M-541.7,30.49l.742-.428-11.27-6.507-.742.429Z" transform="translate(712.206 142.791)" fill="#c4258f"/>
      <path id="Path_53" data-name="Path 53" d="M-576.715,134.2l69.21,39.958c2.762,1.595,7.629,1.393,10.817-.444l115.124-66.47c3.188-1.841,3.538-4.651.777-6.245L-450,61.038c-2.761-1.595-7.628-1.393-10.817.444l-115.124,66.47C-579.127,129.793-579.471,132.6-576.715,134.2Z" transform="translate(578.577 146.784)" fill="#9b8790"/>
      <rect id="Rectangle_4" data-name="Rectangle 4" width="7.919" height="5.26" transform="translate(191.735 245.306)" fill="#9b8790"/>
      <rect id="Rectangle_5" data-name="Rectangle 5" width="7.919" height="4.956" transform="translate(0 273.212)" fill="#9b8790"/>
      <path id="Path_54" data-name="Path 54" d="M-576.715,129.808l69.21,39.958c2.762,1.595,7.629,1.393,10.817-.444l115.124-66.47c3.188-1.841,3.538-4.652.777-6.245L-450,56.651c-2.761-1.593-7.628-1.393-10.817.444l-115.124,66.47C-579.127,125.4-579.471,128.213-576.715,129.808Z" transform="translate(578.577 146.303)" fill="#eadce1"/>
      <path id="Path_55" data-name="Path 55" d="M-574.292,129.742l66.741,38.3c2.686,1.554,7.423,1.355,10.525-.436l112.949-64.843c3.107-1.791,3.44-4.525.756-6.077l-66.74-38.3c-2.687-1.554-7.423-1.355-10.524.437l-112.952,64.842C-576.638,125.456-576.978,128.188-574.292,129.742Z" transform="translate(578.417 146.496)" fill="#c1aeb6" opacity="0.5" style="isolation: isolate"/>
      <path id="Path_56" data-name="Path 56" d="M-568.034,124.472l67.46,38.95,108.8-62.814-67.46-38.95Z" transform="translate(579.732 146.97)" fill="#fff"/>
      <path id="Path_57" data-name="Path 57" d="M-499.5,120.371l57.3,33.128,33.238-19.186-57.3-33.128Z" transform="translate(520.863 151.305)" fill="#c4258f"/>
      <path id="Path_58" data-name="Path 58" d="M-516,99.619l57.3,33.128,14.143-8.2-57.3-33.128Z" transform="translate(574.768 150.234)" fill="#eadce1"/>
      <path id="Path_59" data-name="Path 59" d="M-533.7,89.441l57.291,33.13,14.143-8.2-57.3-33.128Z" transform="translate(612.113 149.118)" fill="#eadce1"/>
      <path id="Path_60" data-name="Path 60" d="M-557.241,79.8l57.3,33.127L-478.1,99.949l-57.3-33.128Z" transform="translate(654.075 147.536)" fill="#eadce1"/>
      <path id="Path_61" data-name="Path 61" d="M-542.233,76.552c-.834.482-.925,1.211-.2,1.628a3.137,3.137,0,0,0,2.82-.111c.834-.482.924-1.211.2-1.629A3.137,3.137,0,0,0-542.233,76.552Z" transform="translate(699.017 148.56)" fill="#eadce1"/>
      <path id="Path_63" data-name="Path 63" d="M-439.661,135.779c-.989.57.084,2.115,2.4,3.45s4.994,1.955,5.977,1.385-.084-2.116-2.4-3.451S-438.673,135.208-439.661,135.779Z" transform="translate(476.831 155.076)" fill="#eadce1"/>
      <path id="Path_64" data-name="Path 64" d="M-568.405,109.937l6.671-3.853a2.016,2.016,0,0,0,.838-1.6h0c0-.615-.377-.9-.838-.634l-6.671,3.853a2.014,2.014,0,0,0-.838,1.6h0C-569.242,109.917-568.865,110.2-568.405,109.937Z" transform="translate(750.193 151.586)" fill="#715d66"/>
      <path id="Path_65" data-name="Path 65" d="M-557.661,116.176l6.672-3.852a2.017,2.017,0,0,0,.838-1.6h0c0-.614-.377-.9-.838-.633l-6.672,3.852a2.014,2.014,0,0,0-.838,1.6h0C-558.5,116.156-558.122,116.442-557.661,116.176Z" transform="translate(727.526 152.271)" fill="#715d66"/>
      <path id="Path_78" data-name="Path 78" d="M-508.245,93.925s-1.059,1.151-2.472,2.53c-1.309,1.277-1.713,1.642-2.928,2.829-.71.692-.125,1.332,1.226,1.276a24.232,24.232,0,0,0,5.385-1.165,27.412,27.412,0,0,0,4.03-2.1,2.668,2.668,0,0,0,1.2-1.512V93.651Z" transform="translate(629.747 150.479)" fill="#9b0d73"/>
      <path id="Path_79" data-name="Path 79" d="M-525.962,92.317a17.74,17.74,0,0,1-2.092,2.368,23.053,23.053,0,0,0-2.853,3.3c-.264.347-.418,1.34.933,1.288a17.848,17.848,0,0,0,4.505-1.089c1.72-.613,3.17-2.345,4.172-2.978a4.206,4.206,0,0,0,1.443-2.033l-.692-2.1Z" transform="translate(666.806 150.197)" fill="#9b0d73"/>
      <path id="Path_80" data-name="Path 80" d="M-510.392,62.568a45.875,45.875,0,0,0-1.461-14.4c.344-2.632-14.2,3.534-14.2,3.534s-2.613,14.147-3.719,21.6c-1.255,8.467-.495,25.71-.495,25.71s.158,1.84,3.311,1.829a6.275,6.275,0,0,0,4.206-2.129l.25-19.623,2.8-13.916s2.7,11.31,3.551,15.369c.911,4.319,4.4,17.089,4.4,17.089s2.259,2.594,5.062,1.193,2.251-2.968,2.251-2.968a56.628,56.628,0,0,0-4.154-17.171C-508.889,72.53-510.622,66.157-510.392,62.568Z" transform="translate(650.697 145.419)" fill="#f588d1"/>
      <path id="Path_81" data-name="Path 81" d="M-509.661,29.9a4.62,4.62,0,0,0-5.584,1.809c-2.132,2.822-2.132,8.409-2.132,8.409s3.148,3.181,6.88,2.971C-506.591,39.557-506.714,31.546-509.661,29.9Z" transform="translate(639.245 143.451)" fill="#9b0d73"/>
      <path id="Path_82" data-name="Path 82" d="M-522.907,30.894a15.188,15.188,0,0,0-2.952,7.518c-.465,3.539-.578,19.515-.578,19.515s4.977,4.39,11.208,3.874a7.573,7.573,0,0,0,5.484-3.023s1.518-18.852,1.221-21.1-5.462-5.757-5.462-5.757S-519.154,29.416-522.907,30.894Z" transform="translate(650.282 143.544)" fill="#c4258f"/>
      <path id="Path_83" data-name="Path 83" d="M-520.94,31.187l-.725,4.217s2.148,2.41,4.251.609a8.492,8.492,0,0,0,2.4-2.632l-1.035-5.751Z" transform="translate(651.511 143.238)" fill="#ffc5b3"/>
      <path id="Path_84" data-name="Path 84" d="M-512.858,22.021a4.87,4.87,0,0,0-6.814.991,4.878,4.878,0,0,0-.786,1.6c-1.629,4.607,2.541,10.363,4.764,9.385a9.333,9.333,0,0,0,4.6-4.918C-510.267,26.345-511.464,23.082-512.858,22.021Z" transform="translate(646.395 142.516)" fill="#ffdcd2"/>
      <path id="Path_85" data-name="Path 85" d="M-521.2,26.2a4.114,4.114,0,0,0,4.048,1.226,8.951,8.951,0,0,0,3.128-1.151l.374,2.441a2.172,2.172,0,0,0,.64-.236c.039-.967.383-1.266.913-.979.6.325.626,1.7.626,1.7a5,5,0,0,0,1.2-4.505c-.382-1.717-2.7-5.1-5.929-4.806a5.956,5.956,0,0,0-5.516,4.283A2.263,2.263,0,0,0-521.2,26.2Z" transform="translate(646.772 142.387)" fill="#622c2a"/>
      <path id="Path_86" data-name="Path 86" d="M-513.3,23.753s-4.15,2.923-4.865,3.541,2.035,3.122,4.865,2.219a55.883,55.883,0,0,0,7.685-3.662Z" transform="translate(638.361 142.813)" fill="#9b0d73"/>
      <path id="Path_87" data-name="Path 87" d="M-521.663,24.312s4.732,2.941,7.684,2.1a10.469,10.469,0,0,0,3.755-1.576s-.256-6.175-5.685-6.175S-521.663,24.312-521.663,24.312Z" transform="translate(646.722 142.254)" fill="#c4258f"/>
      <path id="Path_88" data-name="Path 88" d="M-515.131,18.884c0,.249-.365.449-.814.449s-.813-.2-.813-.449.364-.451.813-.451S-515.131,18.635-515.131,18.884Z" transform="translate(646.188 142.229)" fill="#9b0d73"/>
      <path id="Path_89" data-name="Path 89" d="M-522.362,52.214c-.467,1.384-1.627,4.361-3.737,3.44-.929-.408-1.41-3.329-1.808-3.848,1.083-4.527,1.6-7.031,1.6-7.031a11.573,11.573,0,0,1,5.327,1.413S-522.192,51.712-522.362,52.214Z" transform="translate(664.408 145.118)" fill="#ffdcd2"/>
      <path id="Path_90" data-name="Path 90" d="M-525.961,34.346c1.213.539,3.745,2.094,4.188,6.413a67.668,67.668,0,0,1,.5,7.139,7.613,7.613,0,0,1-3.671,1.168,6.275,6.275,0,0,1-3.1-1.132S-530.258,38.764-525.961,34.346Z" transform="translate(665.477 143.974)" fill="#9b0d73"/>
      <path id="Path_91" data-name="Path 91" d="M-503.042,103.775a5.65,5.65,0,0,1-2.358,4.505c-1.3.752-2.358-.047-2.358-1.782a5.649,5.649,0,0,1,2.358-4.505C-504.1,101.241-503.042,102.038-503.042,103.775Z" transform="translate(624.111 151.362)" fill="#c7e9f4"/>
      <path id="Path_92" data-name="Path 92" d="M-503.775,102.871l-1.82-1.068-2.967,6.6,1.9,1.092Z" transform="translate(625.736 151.373)" fill="#c7e9f4"/>
      <path id="Path_93" data-name="Path 93" d="M-504.759,104.772a5.645,5.645,0,0,1-2.358,4.5c-1.3.752-2.358-.047-2.358-1.782a5.649,5.649,0,0,1,2.358-4.505C-505.814,102.232-504.759,103.03-504.759,104.772Z" transform="translate(627.733 151.471)" fill="#8bcad8"/>
      <path id="Path_94" data-name="Path 94" d="M-506.188,105.276a2.848,2.848,0,0,1-1.186,2.268c-.656.379-1.187-.023-1.187-.9a2.841,2.841,0,0,1,1.187-2.269C-506.72,104-506.188,104.4-506.188,105.276Z" transform="translate(628.149 151.639)" fill="#fff"/>
      <path id="Path_95" data-name="Path 95" d="M-507.948,101.577v4.533a15.254,15.254,0,0,0,1.984.823c1.066.351,1.5-.625,1.16-1.929a39.5,39.5,0,0,0-1.3-3.848Z" transform="translate(625.97 151.302)" fill="#9b8790"/>
      <path id="Path_96" data-name="Path 96" d="M-503.09,101.579l-1.921-.444v3.884l1.921,1.093Z" transform="translate(621.111 151.299)" fill="#c1aeb6"/>
      <ellipse id="Ellipse_1" data-name="Ellipse 1" cx="2.048" cy="3.62" rx="2.048" ry="3.62" transform="matrix(-0.92, -0.392, 0.392, -0.92, 86.772, 266.398)" fill="#c7e9f4"/>
      <path id="Path_97" data-name="Path 97" d="M-474.572,108.067l-1.82-1.068-2.967,6.595,1.894,1.092Z" transform="translate(564.127 151.943)" fill="#c7e9f4"/>
      <path id="Path_98" data-name="Path 98" d="M-475.556,109.964a5.65,5.65,0,0,1-2.358,4.505c-1.3.751-2.358-.047-2.358-1.782a5.644,5.644,0,0,1,2.358-4.505C-476.611,107.429-475.556,108.226-475.556,109.964Z" transform="translate(566.124 152.041)" fill="#8bcad8"/>
      <path id="Path_99" data-name="Path 99" d="M-476.985,110.472a2.844,2.844,0,0,1-1.187,2.269c-.655.38-1.186-.023-1.186-.9a2.845,2.845,0,0,1,1.186-2.269C-477.517,109.2-476.985,109.6-476.985,110.472Z" transform="translate(566.541 152.209)" fill="#fff"/>
      <path id="Path_100" data-name="Path 100" d="M-478.744,106.636v4.635a15.424,15.424,0,0,0,1.985.824c1.066.35,1.5-.626,1.16-1.93a34.382,34.382,0,0,0-1.177-3.531Z" transform="translate(564.36 151.903)" fill="#9b8790"/>
      <path id="Path_101" data-name="Path 101" d="M-473.888,107.072l-1.921-1.091v4.273l1.921,1.093Z" transform="translate(559.504 151.831)" fill="#c1aeb6"/>
      <path id="Path_102" data-name="Path 102" d="M-484.827,93.323a5.65,5.65,0,0,1-2.358,4.505c-1.3.751-2.358-.047-2.358-1.783a5.642,5.642,0,0,1,2.358-4.5C-485.882,90.788-484.827,91.583-484.827,93.323Z" transform="translate(585.683 150.216)" fill="#c7e9f4"/>
      <path id="Path_103" data-name="Path 103" d="M-485.561,92.418l-1.82-1.068-2.967,6.595,1.9,1.092Z" transform="translate(587.31 150.226)" fill="#c7e9f4"/>
      <path id="Path_104" data-name="Path 104" d="M-486.545,94.315A5.65,5.65,0,0,1-488.9,98.82c-1.3.751-2.358-.047-2.358-1.782a5.644,5.644,0,0,1,2.358-4.505C-487.6,91.781-486.545,92.578-486.545,94.315Z" transform="translate(589.307 150.325)" fill="#8bcad8"/>
      <path id="Path_105" data-name="Path 105" d="M-487.973,94.823a2.842,2.842,0,0,1-1.187,2.269c-.656.38-1.187-.022-1.187-.9a2.842,2.842,0,0,1,1.187-2.269C-488.5,93.543-487.973,93.949-487.973,94.823Z" transform="translate(589.723 150.493)" fill="#fff"/>
      <path id="Path_106" data-name="Path 106" d="M-489.733,91.547V95.7a15.43,15.43,0,0,0,1.985.825c1.066.35,1.5-.626,1.159-1.93a36.584,36.584,0,0,0-1.571-4.261Z" transform="translate(587.543 150.114)" fill="#9b8790"/>
      <path id="Path_107" data-name="Path 107" d="M-484.877,91.34l-1.921-.256v3.44l1.921,1.093Z" transform="translate(582.687 150.197)" fill="#eadce1"/>
      <path id="Path_108" data-name="Path 108" d="M-481.784,110.135l1.433-.983-4.328-2.5c-1.743-1.008-1.761-1.643.178-3.34,1.97-1.724,14.232-12.781,14.36-12.9l-1.823-.806c-.129.111-12.95,11.652-14.914,13.372-2.005,1.754-1.768,3.19.769,4.655Z" transform="translate(569.527 150.035)" fill="#c1aeb6"/>
      <path id="Path_109" data-name="Path 109" d="M-506.679,106.989l1.8-.777,3.551,2.051c1.743,1.006,3.416,1.406,6.354.286,2.987-1.137,22.039-8.268,22.24-8.343l1.608,1.11c-.2.075-20.18,7.477-23.161,8.611a8.7,8.7,0,0,1-8.062-.444Z" transform="translate(590.995 151.198)" fill="#c1aeb6"/>
      <path id="Path_110" data-name="Path 110" d="M-498.094,51.493s3.229-3.939,3.228-6.275c0-1.672-1.069-1.166-2.627.065-.979.777-2.359,2.181-2.359,2.181Z" transform="translate(607.162 145.05)" fill="#c4258f"/>
      <path id="Path_111" data-name="Path 111" d="M-494.833,44.6l-.624-.357-4.706,3.206.7.417Z" transform="translate(607.474 145.06)" fill="#c4258f"/>
      <path id="Path_112" data-name="Path 112" d="M-498.726,51.87s3.229-3.939,3.228-6.275c0-1.672-1.069-1.166-2.627.064-.979.777-2.359,2.182-2.359,2.182Z" transform="translate(608.495 145.091)" fill="#9b0d73"/>
      <path id="Path_113" data-name="Path 113" d="M-497.577,47.136l.7.417,1.759,4.028-.7-.417Z" transform="translate(604.888 145.377)" fill="#d62b2b"/>
      <path id="Path_114" data-name="Path 114" d="M-491.5,53.3c.356-1.137,2.481-3.042,4.537-4.883.476-.427.411-.376.832-.766.1.237.333.378.385.631-.361.333-.353.308-.746.666-1.8,1.611-4.035,3.618-4.333,4.569-.366,1.17-3.107,20.773-4.5,30.975l-.7-.1C-495.863,83.18-491.979,54.813-491.5,53.3Z" transform="translate(593.799 145.433)" fill="#c1aeb6"/>
      <path id="Path_115" data-name="Path 115" d="M-493.254,50.211c.18.145.252.426.428.575l-2.885,4.127-.747,5.881-.7-.089.759-5.963Z" transform="translate(602.134 145.714)" fill="#c1aeb6"/>
      <path id="Path_116" data-name="Path 116" d="M-496.086,47.864a.523.523,0,0,0,.27.444c.144.058.255-.049.251-.24a.522.522,0,0,0-.27-.449C-495.982,47.566-496.093,47.673-496.086,47.864Z" transform="translate(603.682 145.428)" fill="#c1aeb6"/>
      <path id="Path_117" data-name="Path 117" d="M-497.2,50.412a.523.523,0,0,0,.27.449c.144.058.256-.049.251-.241a.521.521,0,0,0-.268-.444C-497.088,50.115-497.2,50.222-497.2,50.412Z" transform="translate(606.024 145.709)" fill="#c1aeb6"/>
      <rect id="Rectangle_6" data-name="Rectangle 6" width="25.612" height="0.727" transform="matrix(-0.866, -0.501, 0.501, -0.866, 120.161, 242.733)" fill="#c1aeb6"/>
      <rect id="Rectangle_7" data-name="Rectangle 7" width="25.289" height="0.727" transform="translate(114.383 245.948) rotate(-149.954)" fill="#c1aeb6"/>
      <rect id="Rectangle_8" data-name="Rectangle 8" width="25.302" height="0.727" transform="matrix(-0.866, -0.501, 0.501, -0.866, 108.536, 249.525)" fill="#c1aeb6"/>
      <rect id="Rectangle_9" data-name="Rectangle 9" width="25.523" height="0.727" transform="matrix(-0.866, -0.501, 0.501, -0.866, 102.918, 252.569)" fill="#c1aeb6"/>
      <rect id="Rectangle_10" data-name="Rectangle 10" width="25.509" height="0.727" transform="translate(98.707 255.496) rotate(-149.954)" fill="#c1aeb6"/>
      <path id="Path_118" data-name="Path 118" d="M-490.726,92.154a5.912,5.912,0,0,0,2.9-.666l30.271-17.311A2.208,2.208,0,0,0-456.3,72.3,2.916,2.916,0,0,0-458,69.94l-17.677-9.9a7.367,7.367,0,0,0-6.625-.257L-512.576,77.1a2.206,2.206,0,0,0-1.259,1.88,2.928,2.928,0,0,0,1.708,2.357l17.678,9.9A7.649,7.649,0,0,0-490.726,92.154Zm11.319-32.33a6.976,6.976,0,0,1,3.381.831l17.675,9.9A2.26,2.26,0,0,1-457,72.3a1.533,1.533,0,0,1-.9,1.266l-30.271,17.311a6.7,6.7,0,0,1-5.921-.261l-17.679-9.9a2.265,2.265,0,0,1-1.349-1.742,1.54,1.54,0,0,1,.9-1.267L-481.952,60.4a5.206,5.206,0,0,1,2.541-.573Z" transform="translate(584.107 146.692)" fill="#c1aeb6"/>
      <path id="Path_119" data-name="Path 119" d="M-489.89,108.32a5.924,5.924,0,0,0,2.9-.666h0l26.714-15.616a2.2,2.2,0,0,0,1.255-1.878,2.923,2.923,0,0,0-1.709-2.357l-15.341-8.833a7.371,7.371,0,0,0-6.628-.26l-26.717,15.618c-1.165.672-1.941,1.277-1.941,2.042,0,.528.382,1.005,1.166,1.458l16.57,9.567A7.669,7.669,0,0,0-489.89,108.32Zm2.552-1.279a6.7,6.7,0,0,1-5.92-.261l-16.57-9.568c-.531-.306-.812-.6-.812-.846,0-.513,1.154-1.178,1.589-1.43l26.71-15.616a6.694,6.694,0,0,1,5.92.261l15.341,8.833a2.263,2.263,0,0,1,1.354,1.743,1.538,1.538,0,0,1-.9,1.266l-26.715,15.618Z" transform="translate(584.078 148.767)" fill="#c1aeb6"/>
      <path id="Path_120" data-name="Path 120" d="M-489.979,103.362a6.09,6.09,0,0,0,2.981-.686h0l27.444-16.043a2.266,2.266,0,0,0,1.291-1.93,3,3,0,0,0-1.755-2.421l-15.757-9.074a7.572,7.572,0,0,0-6.811-.266L-510.03,88.981c-1.2.69-2,1.313-2,2.1,0,.543.392,1.032,1.2,1.5l17.024,9.828A7.879,7.879,0,0,0-489.979,103.362Zm2.616-1.315a6.885,6.885,0,0,1-6.083-.267l-17.022-9.828c-.546-.315-.835-.615-.835-.868,0-.528,1.187-1.213,1.635-1.471l27.446-16.044a6.877,6.877,0,0,1,6.083.269l15.757,9.074a2.321,2.321,0,0,1,1.392,1.791,1.58,1.58,0,0,1-.929,1.3l-27.446,16.044Z" transform="translate(584.069 148.133)" fill="#c1aeb6"/>
      <path id="Path_121" data-name="Path 121" d="M-490.14,98.538a6.275,6.275,0,0,0,3.075-.708h0l28.309-16.549a2.338,2.338,0,0,0,1.332-1.991,3.1,3.1,0,0,0-1.81-2.5l-16.258-9.36a7.814,7.814,0,0,0-7.025-.276l-28.31,16.551c-1.235.712-2.058,1.354-2.058,2.165,0,.555.4,1.065,1.236,1.545l17.564,10.138A8.124,8.124,0,0,0-490.14,98.538Zm2.7-1.356a7.1,7.1,0,0,1-6.275-.277l-17.559-10.137c-.564-.325-.861-.635-.861-.9,0-.545,1.221-1.251,1.684-1.516L-482.139,67.8a7.092,7.092,0,0,1,6.274.277l16.258,9.36a2.4,2.4,0,0,1,1.436,1.848,1.627,1.627,0,0,1-.958,1.343Z" transform="translate(584.184 147.496)" fill="#c1aeb6"/>
      <path id="Path_122" data-name="Path 122" d="M-488.924,105.766l5.2-13.154-.658-.261-4.9,12.4-21.11-12.1,6.325-12.185,1.053-20.833-.707-.036-1.049,20.756-6.561,12.573Z" transform="translate(608.755 146.744)" fill="#c1aeb6"/>
      <path id="Path_123" data-name="Path 123" d="M-486.97,62.2l3.895-2.266,1.788.947-4.611,2.946Z" transform="translate(579.288 146.78)" fill="#f4e367"/>
      <path id="Path_124" data-name="Path 124" d="M-497.421,91.071l4.117-2.408.517-3.072-6.3,3.828Z" transform="translate(604.233 149.595)" fill="#f4e367"/>
      <path id="Path_125" data-name="Path 125" d="M-484.114,87.148-484.748,86l5.126-2.963q.015-.373.014-.757c0-.672-.036-1.353-.1-2.038l-4.027,2.33-.634-1.15,4.487-2.593c-.132-.869-.312-1.741-.533-2.61l-4.866,2.817-.635-1.15,5.138-2.968q-.375-1.228-.853-2.425l-5.2,3.007-.634-1.15,5.314-3.07q-.523-1.165-1.134-2.264l-5.091,2.948-.635-1.15,5.066-2.927c-.354-.576-.722-1.136-1.11-1.674l-4.439,2.573-.635-1.15,4.28-2.473q-.648-.811-1.341-1.538l-5.183,3-.634-1.15,4.849-2.8a17.081,17.081,0,0,0-1.664-1.355l-5.854,3.389-.634-1.15,5.242-3.029a10.879,10.879,0,0,0-2.3-.989l-5.612,3.249-.635-1.15,4.175-2.414c-4.048-.022-6.88,3.7-6.88,9.944,0,8.36,5.083,18.073,11.353,21.693,3.909,2.257,7.356,1.612,9.4-1.221l-4.237,2.453-.634-1.15,5.992-3.466a13.243,13.243,0,0,0,.682-2.859Z" transform="translate(594.634 146.703)" fill="#f4e367"/>
      <path id="Path_126" data-name="Path 126" d="M-489.279,62.789l5.612-3.249a7.538,7.538,0,0,0-2.066-.315l-4.18,2.415Z" transform="translate(584.935 146.703)" fill="#fff9b8"/>
      <path id="Path_127" data-name="Path 127" d="M-492.475,64.58l5.854-3.389c-.376-.266-.756-.513-1.142-.735-.034-.02-.069-.037-.1-.055l-5.242,3.029Z" transform="translate(591.435 146.832)" fill="#fff9b8"/>
      <path id="Path_128" data-name="Path 128" d="M-494.849,66.285l5.183-3q-.474-.5-.968-.951l-4.849,2.8Z" transform="translate(597.114 147.044)" fill="#fff9b8"/>
      <path id="Path_129" data-name="Path 129" d="M-496.767,68.2l4.439-2.573c-.259-.36-.526-.709-.8-1.05l-4.28,2.473Z" transform="translate(601.91 147.29)" fill="#fff9b8"/>
      <path id="Path_130" data-name="Path 130" d="M-498.361,71.109l5.091-2.948c-.213-.383-.434-.759-.666-1.129L-499,69.959Z" transform="translate(604.621 147.559)" fill="#fff9b8"/>
      <path id="Path_131" data-name="Path 131" d="M-499.857,74.31l5.2-3.007c-.164-.408-.333-.812-.515-1.213l-5.314,3.07Z" transform="translate(607.667 147.895)" fill="#fff9b8"/>
      <path id="Path_132" data-name="Path 132" d="M-500.952,77.486l4.866-2.817c-.111-.435-.231-.87-.363-1.3l-5.138,2.968Z" transform="translate(610.307 148.254)" fill="#fff9b8"/>
      <path id="Path_133" data-name="Path 133" d="M-501.589,80.635l4.027-2.33q-.065-.7-.173-1.412l-4.487,2.593Z" transform="translate(612.489 148.641)" fill="#fff9b8"/>
      <path id="Path_134" data-name="Path 134" d="M-501.666,84.794l4.36-2.523c.065-.508.111-1.036.133-1.588l-5.126,2.963Z" transform="translate(612.185 149.056)" fill="#fff9b8"/>
      <path id="Path_135" data-name="Path 135" d="M-500.929,89.305l4.237-2.453a8.984,8.984,0,0,0,1.125-2.162l-5.992,3.466Z" transform="translate(609.757 149.496)" fill="#fff9b8"/>
      <ellipse id="Ellipse_2" data-name="Ellipse 2" cx="17.43" cy="9.861" rx="17.43" ry="9.861" transform="matrix(-0.392, -0.92, 0.92, -0.392, 97.403, 244.683)" fill="#fff9b8"/>
      <ellipse id="Ellipse_3" data-name="Ellipse 3" cx="14.507" cy="8.207" rx="14.507" ry="8.207" transform="matrix(-0.392, -0.92, 0.92, -0.392, 97.779, 241.346)" fill="#f4e367"/>
      <path id="Path_136" data-name="Path 136" d="M-486.33,83.444a4.043,4.043,0,0,0,2.468.584V80.736l-1.42-.975v1.282c0,.4-.043.527-.287.518a1.768,1.768,0,0,1-.759-.262V77.167c1.319.21,2.51.036,2.51-2.528a7.04,7.04,0,0,0-2.51-5.471V67.14l-1.077-.621v1.989a3.8,3.8,0,0,0-2.219-.444v3.115l1.407.945V70.931c0-.4.043-.527.287-.519a2.091,2.091,0,0,1,.529.151v3.884l-.013-.008c-1.263-.133-2.583-.033-2.583,2.64a7.3,7.3,0,0,0,2.6,5.675v2.275l1.078.623Zm0-8.948V71.313a2.969,2.969,0,0,1,.746,2.066c0,.8-.287,1.049-.746,1.115Zm-1.078,2.581v3.448a3.257,3.257,0,0,1-.817-2.306c0-.84.328-1.114.816-1.142Z" transform="translate(585.181 147.503)" fill="#d5c33d"/>
      <path id="Path_137" data-name="Path 137" d="M-476.971,67.723l3.895-2.266,1.788.947L-475.9,69.35Z" transform="translate(558.194 147.386)" fill="#f4e367"/>
      <path id="Path_138" data-name="Path 138" d="M-487.431,96.6l4.117-2.408.517-3.072-6.3,3.824Z" transform="translate(583.153 150.201)" fill="#f4e367"/>
      <path id="Path_139" data-name="Path 139" d="M-474.125,92.675l-.634-1.15,5.126-2.962c.01-.249.014-.5.016-.758,0-.666-.037-1.352-.1-2.037l-4.026,2.33-.635-1.15,4.488-2.593c-.132-.87-.312-1.742-.533-2.61l-4.866,2.817-.635-1.15,5.138-2.968c-.249-.818-.535-1.629-.853-2.426l-5.2,3.008-.634-1.15,5.314-3.07q-.523-1.165-1.134-2.264l-5.091,2.948-.635-1.15,5.066-2.927q-.531-.866-1.11-1.674l-4.439,2.572-.635-1.15,4.28-2.472q-.648-.811-1.34-1.539l-5.183,3-.634-1.15,4.849-2.8a17.238,17.238,0,0,0-1.665-1.354l-5.854,3.388-.634-1.149,5.242-3.031a10.786,10.786,0,0,0-2.3-.988l-5.613,3.249-.635-1.15,4.18-2.415c-4.047-.022-6.88,3.7-6.88,9.944,0,8.36,5.083,18.072,11.354,21.693,3.908,2.257,7.355,1.612,9.4-1.221l-4.237,2.453-.634-1.15L-470.443,93a13.181,13.181,0,0,0,.682-2.859Z" transform="translate(573.552 147.309)" fill="#f4e367"/>
      <path id="Path_140" data-name="Path 140" d="M-479.284,68.317l5.613-3.249a7.545,7.545,0,0,0-2.067-.315l-4.18,2.415Z" transform="translate(563.848 147.309)" fill="#fff9b8"/>
      <path id="Path_141" data-name="Path 141" d="M-482.479,70.106l5.854-3.388c-.376-.266-.756-.513-1.141-.735-.035-.02-.07-.037-.1-.057l-5.242,3.031Z" transform="translate(570.347 147.438)" fill="#fff9b8"/>
      <path id="Path_142" data-name="Path 142" d="M-484.853,71.812l5.183-3q-.474-.5-.968-.951l-4.849,2.8Z" transform="translate(576.025 147.651)" fill="#fff9b8"/>
      <path id="Path_143" data-name="Path 143" d="M-486.771,73.727l4.439-2.572c-.259-.361-.526-.71-.8-1.05l-4.28,2.472Z" transform="translate(580.821 147.896)" fill="#fff9b8"/>
      <path id="Path_144" data-name="Path 144" d="M-488.369,76.636l5.091-2.948c-.213-.383-.434-.759-.666-1.129l-5.066,2.927Z" transform="translate(583.541 148.165)" fill="#fff9b8"/>
      <path id="Path_145" data-name="Path 145" d="M-489.861,79.837l5.2-3.008q-.245-.613-.515-1.212l-5.314,3.07Z" transform="translate(586.578 148.501)" fill="#fff9b8"/>
      <path id="Path_146" data-name="Path 146" d="M-490.956,83.013l4.866-2.82q-.166-.654-.363-1.3l-5.138,2.968Z" transform="translate(589.219 148.86)" fill="#fff9b8"/>
      <path id="Path_147" data-name="Path 147" d="M-491.592,86.162l4.026-2.33q-.065-.7-.173-1.412l-4.488,2.593Z" transform="translate(591.401 149.247)" fill="#fff9b8"/>
      <path id="Path_148" data-name="Path 148" d="M-491.671,90.326l4.36-2.523q.1-.762.133-1.588l-5.126,2.962Z" transform="translate(591.096 149.663)" fill="#fff9b8"/>
      <path id="Path_149" data-name="Path 149" d="M-490.938,94.832l4.237-2.453a8.984,8.984,0,0,0,1.125-2.162l-5.992,3.465Z" transform="translate(588.679 150.102)" fill="#fff9b8"/>
      <path id="Path_150" data-name="Path 150" d="M-465.985,89.931c0,8.36-5.085,12.206-11.354,8.582S-488.693,85.18-488.693,76.82s5.083-12.206,11.354-8.583S-465.985,81.57-465.985,89.931Z" transform="translate(565.897 147.542)" fill="#fff9b8"/>
      <ellipse id="Ellipse_4" data-name="Ellipse 4" cx="14.507" cy="8.207" rx="14.507" ry="8.207" transform="translate(86.687 247.479) rotate(-113.05)" fill="#f4e367"/>
      <path id="Path_151" data-name="Path 151" d="M-476.334,88.967a4.043,4.043,0,0,0,2.468.584V86.26l-1.42-.975v1.282c0,.4-.043.527-.286.518a1.753,1.753,0,0,1-.76-.262V82.691c1.32.211,2.51.035,2.51-2.528a7.04,7.04,0,0,0-2.51-5.471V72.659l-1.077-.621v1.989a3.811,3.811,0,0,0-2.219-.444V76.7l1.407.944V76.45c0-.4.044-.527.287-.519a2.1,2.1,0,0,1,.53.151v3.884l-.014-.009c-1.263-.132-2.582-.032-2.582,2.641a7.3,7.3,0,0,0,2.6,5.675v2.275l1.078.623Zm0-8.948V76.837a2.97,2.97,0,0,1,.747,2.066c0,.8-.292,1.051-.747,1.117Zm-1.078,2.581v3.448a3.252,3.252,0,0,1-.818-2.306c0-.837.33-1.111.818-1.139Z" transform="translate(564.092 148.108)" fill="#d5c33d"/>
      <path id="Path_152" data-name="Path 152" d="M-512.379,76.937a1.457,1.457,0,0,0-.75,1.159,2.265,2.265,0,0,0,1.349,1.742l17.679,9.9a6.7,6.7,0,0,0,5.921.261l30.271-17.311a1.533,1.533,0,0,0,.9-1.266,2.26,2.26,0,0,0-1.349-1.741l-3.249-1.819c.013-.053.02-.111.033-.161.043-.174.088-.362.138-.555L-458,69.062a2.916,2.916,0,0,1,1.708,2.357,2.208,2.208,0,0,1-1.258,1.88l-30.271,17.311a5.912,5.912,0,0,1-2.9.666,7.66,7.66,0,0,1-3.723-.925l-17.678-9.9a2.927,2.927,0,0,1-1.708-2.357,1.957,1.957,0,0,1,.621-1.382C-512.937,76.792-512.659,76.865-512.379,76.937Z" transform="translate(584.109 147.571)" fill="#c1aeb6"/>
      <path id="Path_153" data-name="Path 153" d="M-510.041,88.053l.515-.3c.193.17.388.333.584.5l-.733.429c-.444.257-1.635.943-1.635,1.471,0,.252.289.555.834.868l17.022,9.828a6.885,6.885,0,0,0,6.083.267h0l27.446-16.044a1.58,1.58,0,0,0,.929-1.3,2.321,2.321,0,0,0-1.392-1.791l-1.055-.609c.111-.215.207-.444.311-.659l1.11.638a3,3,0,0,1,1.756,2.421,2.267,2.267,0,0,1-1.291,1.93L-487,101.743h0a6.09,6.09,0,0,1-2.981.686,7.876,7.876,0,0,1-3.831-.953l-17.024-9.828c-.806-.465-1.2-.954-1.2-1.5C-512.038,89.365-511.242,88.743-510.041,88.053Z" transform="translate(584.081 149.059)" fill="#c1aeb6"/>
      <rect id="Rectangle_11" data-name="Rectangle 11" width="0.708" height="18.425" transform="translate(93.906 238.442)" fill="#c1aeb6"/>
      <rect id="Rectangle_12" data-name="Rectangle 12" width="19.892" height="0.708" transform="matrix(-0.125, -0.992, 0.992, -0.125, 72.768, 245.407)" fill="#c1aeb6"/>
      <rect id="Rectangle_13" data-name="Rectangle 13" width="0.708" height="20.354" transform="translate(125.057 239.272) rotate(-172.225)" fill="#c1aeb6"/>
      <rect id="Rectangle_14" data-name="Rectangle 14" width="25.698" height="0.708" transform="translate(124.586 211.751) rotate(-150.589)" fill="#c1aeb6"/>
      <path id="Path_154" data-name="Path 154" d="M-519.319,47.238l20.8,12.021a1.393,1.393,0,0,0,1.246-.052h0c.367-.212.614-.935.294-1.12l-21.609-12.455C-518.909,45.445-519.638,47.053-519.319,47.238Z" transform="translate(630.821 145.21)" fill="#c4258f"/>
      <path id="Path_155" data-name="Path 155" d="M-498.769,46.168a1.227,1.227,0,0,1-.634,1.059c-.34.136-.6-.117-.593-.565a1.232,1.232,0,0,1,.635-1.06C-499.022,45.469-498.757,45.719-498.769,46.168Z" transform="translate(611.223 145.205)" fill="#c4258f"/>
      <path id="Path_156" data-name="Path 156" d="M-510.826,82.735l.159-.093c.222.156.454.313.68.472l-.463.271c-.461.265-1.684.972-1.684,1.516,0,.261.3.57.861.9l17.559,10.137a7.1,7.1,0,0,0,6.275.277l28.308-16.551a1.628,1.628,0,0,0,.958-1.343,2.4,2.4,0,0,0-1.436-1.848l-.83-.479c.111-.222.227-.444.342-.666l.863.5a3.1,3.1,0,0,1,1.81,2.5,2.338,2.338,0,0,1-1.332,1.991l-28.309,16.549h0a6.275,6.275,0,0,1-3.075.708,8.113,8.113,0,0,1-3.95-.983L-511.65,86.445c-.832-.48-1.236-.985-1.236-1.545C-512.885,84.088-512.063,83.447-510.826,82.735Z" transform="translate(584.184 148.468)" fill="#c1aeb6"/>
      <path id="Path_157" data-name="Path 157" d="M-518.038,62.847s3.228-3.939,3.228-6.274c0-1.672-1.069-1.167-2.627.064-.98.777-2.36,2.181-2.36,2.181Z" transform="translate(649.238 146.295)" fill="#c4258f"/>
      <path id="Path_158" data-name="Path 158" d="M-514.776,55.957l-.625-.357-4.706,3.206.7.417Z" transform="translate(649.548 146.305)" fill="#c4258f"/>
      <path id="Path_159" data-name="Path 159" d="M-518.671,63.223s3.228-3.939,3.228-6.275c0-1.672-1.069-1.166-2.627.064-.98.777-2.359,2.182-2.359,2.182Z" transform="translate(650.573 146.336)" fill="#9b0d73"/>
      <path id="Path_160" data-name="Path 160" d="M-517.52,58.49l.7.417,1.758,4.029-.7-.417Z" transform="translate(646.962 146.622)" fill="#9b0d73"/>
      <path id="Path_161" data-name="Path 161" d="M-511.449,64.65c.356-1.137,2.481-3.043,4.536-4.883.477-.427.412-.376.833-.766.1.239.333.378.385.631-.361.333-.353.308-.746.666-1.8,1.61-4.035,3.616-4.333,4.567-.366,1.171-3.107,20.774-4.5,30.975l-.7-.1C-515.808,94.534-511.924,66.167-511.449,64.65Z" transform="translate(635.877 146.678)" fill="#c1aeb6"/>
      <path id="Path_162" data-name="Path 162" d="M-513.2,61.565c.179.145.252.426.428.575l-2.885,4.127-.747,5.881-.7-.09.758-5.963Z" transform="translate(644.216 146.96)" fill="#c1aeb6"/>
      <path id="Path_163" data-name="Path 163" d="M-516.03,59.216a.522.522,0,0,0,.269.444c.144.058.256-.05.251-.24a.518.518,0,0,0-.268-.444C-515.923,58.919-516.036,59.026-516.03,59.216Z" transform="translate(645.759 146.674)" fill="#c1aeb6"/>
      <path id="Path_164" data-name="Path 164" d="M-517.141,61.773a.523.523,0,0,0,.27.444c.144.058.255-.05.251-.24a.522.522,0,0,0-.27-.449C-517.034,61.469-517.146,61.578-517.141,61.773Z" transform="translate(648.102 146.954)" fill="#c1aeb6"/>
      <path id="Path_165" data-name="Path 165" d="M-479.459,86.994s.121,2.726-1.063,3.5a4.24,4.24,0,0,1-4.94-.06,2.425,2.425,0,0,1-.83-2.613,7.662,7.662,0,0,0,3.773.4A13.685,13.685,0,0,0-479.459,86.994Z" transform="translate(576.82 149.748)" fill="#c1aeb6"/>
      <path id="Path_166" data-name="Path 166" d="M-462.41,75.318c.178-.03.629.455.629.455a1.837,1.837,0,0,0-.861.666,1.253,1.253,0,0,0-.039,1.576c.341.36.681.672.681.672a8.2,8.2,0,0,0-.34,1.214c-.132.737-1.094-.193-1.094-.193a10.406,10.406,0,0,1-.237-2.774A2.428,2.428,0,0,1-462.41,75.318Z" transform="translate(533.941 148.468)" fill="#c1aeb6"/>
      <path id="Path_167" data-name="Path 167" d="M-512.248,50.4s-8.761,1.11-11.458,1.221c-1.98.083-2.1,1.742-2.4,2.386a.789.789,0,0,0,.3,1.075.732.732,0,0,0,.108.051c.943,0,.625.576,1.2.576.856,0,1.221.533,1.546.65.577.214,1.919-.814,2.219-1.048,1.324-1.013,2.524-1.052,7.648,0,4.229.87,4.685-2.436,4.685-2.436Z" transform="translate(649.95 145.735)" fill="#ffdcd2"/>
      <path id="Path_168" data-name="Path 168" d="M-503.41,39.47s-1.1,5.025-1.167,5.465a11.874,11.874,0,0,1-3,1.409c-1.519.651-2.458,1.061-2.851,2.538s.073,1.426.571,1.9.8.3,1.2.739a1.184,1.184,0,0,0,1.3.346c-.075-.584-.436-1.387.555-1.733.307.178.81.451.81.451a2.043,2.043,0,0,0,.315-1.07c0-.285.833-.234,1.618-.234a2.513,2.513,0,0,0,2.267-1.071l.222-7.455Z" transform="translate(625.765 144.536)" fill="#ffdcd2"/>
      <path id="Path_313" data-name="Path 313" d="M-632.382,76.622s2.985-2.35,10.687-3.145c3.467-.357,13.538-4.444,14.323-4.572l2.51-.413,1.648,3.218a16.734,16.734,0,0,1-3.643,2.649c-3.995,2.267-8.7,3.965-10.944,5.006s-10.708,4.856-10.708,4.856Z" transform="translate(862.575 147.719)" fill="#c7e9f4"/>
      <path id="Path_314" data-name="Path 314" d="M-611.214,141.665c-1.4-1.369-2.456-2.511-2.456-2.511l-6.393-.273V141a2.653,2.653,0,0,0,1.187,1.5,27.15,27.15,0,0,0,4,2.086,24.155,24.155,0,0,0,5.348,1.157c1.343.051,1.923-.58,1.221-1.268C-609.513,143.3-609.915,142.935-611.214,141.665Z" transform="translate(853.693 155.439)" fill="#8bcad8"/>
      <path id="Path_315" data-name="Path 315" d="M-594.273,141.564l-5.77-.649a15.027,15.027,0,0,0,.544,7.446c1.348,3.778,3.717,3.817,4.55,3.518s1.221-2.7,1.068-5.424S-594.273,141.564-594.273,141.564Z" transform="translate(817.59 155.662)" fill="#8bcad8"/>
      <path id="Path_316" data-name="Path 316" d="M-594.645,98.463s-13.948-4.257-13.607-1.642c0,0-3.1,3.891-2.6,11.646.229,3.562-.079,12.428-.377,18.548a60.122,60.122,0,0,0-4.283,17.358s-.547,1.554,2.238,2.947,6.85-.059,6.85-.059,0-12,3.228-18.8c1.766-3.723,2.24-16.618,2.24-16.618l2.784,13.822.249,17.524a7.2,7.2,0,0,0,4.384,1.965c3.133.012,3.29-1.815,3.29-1.815s.546-15.011-.7-23.414C-592.048,112.513-594.645,98.463-594.645,98.463Z" transform="translate(830.826 150.733)" fill="#c7e9f4"/>
      <path id="Path_317" data-name="Path 317" d="M-599.03,75.653a14.979,14.979,0,0,1,4.067,8.212c.12,1.146-.1,5.521.153,9.077.266,3.75.444,6.185-.208,7.423-.777,1.477-3.535,2.928-6.246,3.411-3.072.547-6.563-.381-8.877-.726-2.537-1.608-.978-4.172-1.2-5.859-.686-5.274-1.711-13.8-1.526-15.195.312-2.33,5.6-4.861,5.6-4.861S-602.92,74.123-599.03,75.653Z" transform="translate(832.297 148.457)" fill="#8bcad8"/>
      <path id="Path_318" data-name="Path 318" d="M-607.794,79.928l.294,2.311a49.228,49.228,0,0,1,1.592,5.224c.292,1.613.877,8.594.877,8.594l-.991,2.753-1.942-1.517-.9-14.442-1.443-1.727,1.377-1.607Z" transform="translate(839.891 148.929)" fill="#c7e9f4"/>
      <path id="Path_319" data-name="Path 319" d="M-601.37,75.921l.25,3.656a9.8,9.8,0,0,1-1.715,1.769c-1.32-.413-4.389-3.258-4.389-3.258l1.022-5.674Z" transform="translate(832.566 148.149)" fill="#ffad97"/>
      <path id="Path_320" data-name="Path 320" d="M-609.383,66.965a4.806,4.806,0,0,1,6.757-.748,4.793,4.793,0,0,1,1.147,1.329c2.7,3.995.149,10.532-2.219,10.15a9.226,9.226,0,0,1-5.616-3.551C-610.784,71.741-610.452,68.327-609.383,66.965Z" transform="translate(835.18 147.354)" fill="#ffc5b3"/>
      <path id="Path_321" data-name="Path 321" d="M-608.67,76.473l-.3,3.381,2.408.982S-606.312,77.255-608.67,76.473Z" transform="translate(839.933 148.595)" fill="#fff"/>
      <path id="Path_322" data-name="Path 322" d="M-606.01,75.7a17.794,17.794,0,0,0,2.239,2.61,8.424,8.424,0,0,0,3.021,1.623l-.907,2.72a19.024,19.024,0,0,1-4.55-2.854S-607.649,77.312-606.01,75.7Z" transform="translate(831.716 148.51)" fill="#fff"/>
      <path id="Path_323" data-name="Path 323" d="M-602.531,67.658c-3.568,1.278-4.468,4.112-4.915,4.5-.5.436-.432,2.108-.432,2.108a6.169,6.169,0,0,1-1.9-4.4c0-1.718,1.507-5.437,4.653-5.827s6.731,1.893,5.35,4.075A2.948,2.948,0,0,0-602.531,67.658Z" transform="translate(833.746 147.226)" fill="#542727"/>
      <path id="Path_325" data-name="Path 325" d="M-612.2,83.523l2.922-1.433s1.014,4.121-.862,4.779C-611.631,87.39-612.2,83.523-612.2,83.523Z" transform="translate(845.965 149.211)" fill="#fff"/>
      <path id="Path_326" data-name="Path 326" d="M-608.183,66.049c-2.641,1.046-3.218,3.135-1.288,4.661a9.248,9.248,0,0,0,8.277.869c2.641-1.048,3.218-3.135,1.289-4.661A9.243,9.243,0,0,0-608.183,66.049Z" transform="translate(833.969 147.385)" fill="#fff9b8"/>
      <path id="Path_327" data-name="Path 327" d="M-598.855,69.587s1.12-6.787-4.754-7.657c-6.847-1.006-7.065,7.031-7.065,7.031Z" transform="translate(834.041 146.99)" fill="#fff9b8"/>
      <path id="Path_328" data-name="Path 328" d="M-600.395,67.919s2.855,2.67-.607,4.162c-5.868,2.533-10.668-2.122-10.668-2.122s6.234,1.488,9.4.1C-600.128,69.119-600.395,67.919-600.395,67.919Z" transform="translate(835.666 147.656)" fill="#efe48f"/>
      <path id="Path_329" data-name="Path 329" d="M-604.953,62.33a4.172,4.172,0,0,1,1.811,2.4,2.442,2.442,0,0,1-1.17,3.21,7.665,7.665,0,0,0-2.127,2,2.8,2.8,0,0,1,.905-2.341c1.09-.912,2.108-1.382,1.48-2.864-.777-1.821-3.289-2.5-3.289-2.5S-606.483,61.436-604.953,62.33Z" transform="translate(834.498 146.997)" fill="#efe48f"/>
      <path id="Path_330" data-name="Path 330" d="M-610.841,61.927a5.692,5.692,0,0,1,2.356,1.72c.322.51.3,2.256.608,2.69A17.581,17.581,0,0,0-606,68.028s.474-.444-.111-1.241-1.3-.867-1.37-2.056C-607.537,63.934-607.13,62.159-610.841,61.927Z" transform="translate(841.279 146.999)" fill="#efe48f"/>
      <path id="Path_331" data-name="Path 331" d="M-639.661,68.661a36.07,36.07,0,0,1,6.462-1.886c1.736-.087,2.429,0,3.036,0s.339.735-.615.873-2.27.213-2.27.213.716,1.674.455,2.33-1.763.977-2.157,1.032c-.154.021-1.042-.311-1.678-.376a9,9,0,0,0-2.41,1.12Z" transform="translate(897.278 147.527)" fill="#ffc5b3"/>
      <path id="Path_332" data-name="Path 332" d="M-632.772,68.9a3.4,3.4,0,0,1,1.909,1.726,6.842,6.842,0,0,1,.514,2.176l1.589-.8a4.924,4.924,0,0,0-.34-2.738c-.288-.575-1-1.208-1.475-1.156A7.354,7.354,0,0,0-632.772,68.9Z" transform="translate(888.491 147.677)" fill="#fff"/>
      <path id="Path_333" data-name="Path 333" d="M-599.191,96.744a7.149,7.149,0,0,1,2.04,3.231c.347,1.714-.824,2.582-2.04,3.234s-1.611.478-1.775.26c-.262-.341.51-1,.51-1s-1.205.562-1.291,0,.911-1.063.911-1.063a1.933,1.933,0,0,1-.608-1.841C-601.316,98.22-599.191,96.744-599.191,96.744Z" transform="translate(822.461 150.818)" fill="#ffc5b3"/>
      <path id="Path_334" data-name="Path 334" d="M-598.913,95.629s1.494.548,1.754,1.762.058,2.649-1.133,3.083c-1.332.483-1.826-.091-1.826-.091l-.382-.733Z" transform="translate(821.04 150.696)" fill="#fff"/>
      <path id="Path_335" data-name="Path 335" d="M-589.433,79.535a7.865,7.865,0,0,1,1.782,5.635c-.347,1.99-3.124,5.871-3.643,6.619a18.873,18.873,0,0,1-1.648,1.875,38.543,38.543,0,0,1,5.067,3.862,3.608,3.608,0,0,1,.289,2.713c-.259,1.07-.585,2.541-4.489,1.41s-6.064-2.894-6.983-4.948c-1.006-2.247-1-4.809,2.125-9.735S-590.731,78.6-589.433,79.535Z" transform="translate(810.487 148.914)" fill="#c7e9f4"/>
      <path id="Path_169" data-name="Path 169" d="M-548.155,174.1s1.043,1.133,2.435,2.49c1.287,1.256,1.687,1.618,2.885,2.784.7.681.123,1.308-1.207,1.256a23.927,23.927,0,0,1-5.3-1.146,26.987,26.987,0,0,1-3.967-2.068,2.631,2.631,0,0,1-1.177-1.489v-2.1Z" transform="translate(715.46 159.272)" fill="#8bcad8"/>
      <path id="Path_170" data-name="Path 170" d="M-530.8,172.518a17.629,17.629,0,0,0,2.058,2.33,22.728,22.728,0,0,1,2.809,3.252c.26.342.412,1.318-.919,1.268a17.513,17.513,0,0,1-4.439-1.072c-1.692-.6-3.121-2.308-4.106-2.932a4.142,4.142,0,0,1-1.419-2l.68-2.064Z" transform="translate(679.063 158.995)" fill="#8bcad8"/>
      <path id="Path_171" data-name="Path 171" d="M-544.681,143.018c-.492-7.686,3.745-11.726,3.745-11.726-.333-2.59,11.677,1.035,11.677,1.035s2.572,13.924,3.662,21.257c1.236,8.334.487,25.3.487,25.3s-.155,1.811-3.26,1.8a6.177,6.177,0,0,1-4.138-2.1l-.248-19.316-2.759-13.7s-2.657,11.131-3.5,15.126c-.9,4.25-4.328,16.825-4.328,16.825s-2.219,2.552-4.982,1.174-2.219-2.921-2.219-2.921a55.718,55.718,0,0,1,4.089-16.9C-546.153,152.829-544.454,146.554-544.681,143.018Z" transform="translate(693.478 154.505)" fill="#c7e9f4"/>
      <path id="Path_172" data-name="Path 172" d="M-549.625,113.952s1.718-.084,3.492,3.248,3.47,6.88,3.47,6.88a11.17,11.17,0,0,0-5.391,2.956C-551.9,123.567-552.526,115.578-549.625,113.952Z" transform="translate(712.2 152.705)" fill="#f4e367"/>
      <path id="Path_173" data-name="Path 173" d="M-532.6,114.068a27.249,27.249,0,0,1,1.854,5.252c.888,3.4.569,19.207.569,19.207a15.7,15.7,0,0,1-9.8,2.083,8.315,8.315,0,0,1-5.506-2.56s-2.181-15.48-1.886-17.7,4.935-7.426,4.935-7.426S-536.3,112.614-532.6,114.068Z" transform="translate(695.181 152.59)" fill="#fff291"/>
      <path id="Path_174" data-name="Path 174" d="M-536.187,112.35l.714,4.152s-2.114,2.372-4.184.6a8.344,8.344,0,0,1-2.366-2.59l1.019-5.659Z" transform="translate(694.565 152.146)" fill="#ffad97"/>
      <path id="Path_175" data-name="Path 175" d="M-534.416,123.416s-2.672-4.02-4.786-5.148a12.837,12.837,0,0,0-3.254-1.332s.769-1.59,1.285-1.775a10.092,10.092,0,0,1,3.377,1.367,14.339,14.339,0,0,1,4.818,4.847C-531.3,124.328-533.19,125.123-534.416,123.416Z" transform="translate(691.886 152.838)" fill="#c7e9f4"/>
      <path id="Path_176" data-name="Path 176" d="M-544.421,113.68a32.615,32.615,0,0,1,1.952,6.149c.21,2-.189,2.609-.992,2.679s-.846-1.353-1.084-2.941c-.222-1.5-1.69-6.429-1.69-6.429Z" transform="translate(706.179 152.616)" fill="#c7e9f4"/>
      <path id="Path_177" data-name="Path 177" d="M-547.542,135.224a6.289,6.289,0,0,0,3.884,1.332c1.692-.185,4.129-1.832,3.995-7.186a50.834,50.834,0,0,0-.626-7.821l6.472-2.835s1.758,4.067,2.108,12.047.493,10.729.493,10.729a88.08,88.08,0,0,1-10.986,0,36.424,36.424,0,0,1-5.8-.928Z" transform="translate(696.939 153.227)" fill="#c7e9f4"/>
      <ellipse id="Ellipse_5" data-name="Ellipse 5" cx="0.409" cy="0.595" rx="0.409" ry="0.595" transform="translate(162.409 272.806)" fill="#fff"/>
      <path id="Path_178" data-name="Path 178" d="M-540.837,121.689c.191.267.2.59.014.721s-.487.023-.68-.244-.2-.589-.014-.721S-541.029,121.422-540.837,121.689Z" transform="translate(699.368 153.521)" fill="#fff"/>
      <path id="Path_179" data-name="Path 179" d="M-540.77,122.36c.264,1.338.13,5.548-2.256,6.185-2.165.575-2.724-1.976-3.218-3.949A21.746,21.746,0,0,0-540.77,122.36Z" transform="translate(704.449 153.627)" fill="#8bcad8"/>
      <path id="Path_180" data-name="Path 180" d="M-543.813,103.328a4.793,4.793,0,0,1,6.707.978,4.783,4.783,0,0,1,.773,1.575c1.6,4.535-2.5,10.2-4.69,9.238a9.2,9.2,0,0,1-4.526-4.84C-546.363,107.585-545.186,104.373-543.813,103.328Z" transform="translate(699.272 151.436)" fill="#ffc5b3"/>
      <path id="Path_181" data-name="Path 181" d="M-540.712,150V133.551l-13.257-6.609V142.46Z" transform="translate(713.06 154.13)" fill="#dba763"/>
      <path id="Path_182" data-name="Path 182" d="M-565.916,150V133.551l13.257-6.609V142.46Z" transform="translate(738.264 154.13)" fill="#e8b679"/>
      <path id="Path_183" data-name="Path 183" d="M-540.708,150.248V133.656l-13.257-7.663v16.573Z" transform="translate(713.051 154.026)" fill="#dba763"/>
      <path id="Path_184" data-name="Path 184" d="M-565.912,150.248V133.656l13.257-7.663v16.573Z" transform="translate(738.256 154.026)" fill="#e8b679"/>
      <path id="Path_185" data-name="Path 185" d="M-539.4,126.749l-13.257,7.663-13.257-7.663,13.253-7.657Z" transform="translate(725.007 153.269)" fill="#ffe1c0"/>
      <path id="Path_186" data-name="Path 186" d="M-549.132,133.387l2.956,1.716v-4.841l-2.956-1.718Z" transform="translate(713.156 154.305)" fill="#8bcad8"/>
      <path id="Path_187" data-name="Path 187" d="M-561.068,129.3l13.238-7.657,2.963,1.712-13.244,7.666Z" transform="translate(725.092 153.549)" fill="#c7e9f4"/>
      <path id="Path_188" data-name="Path 188" d="M-547.936,146.049V145.2l-4.451-2.581v.866Z" transform="translate(718.529 155.849)" fill="#8bcad8"/>
      <path id="Path_189" data-name="Path 189" d="M-547.936,144.675v-.853l-4.451-2.581v.866Z" transform="translate(718.529 155.698)" fill="#8bcad8"/>
      <path id="Path_190" data-name="Path 190" d="M-542.647,138.859v2.96l-2.128-1.233v-2.962Z" transform="translate(704.792 155.301)" fill="#8bcad8"/>
      <path id="Path_191" data-name="Path 191" d="M-565.206,138.58v3.079l2.128-1.23v-3.084Z" transform="translate(747.895 155.271)" fill="#8bcad8"/>
      <path id="Path_192" data-name="Path 192" d="M-562.589,140.1v3.084l2.128-1.23v-3.084Z" transform="translate(742.374 155.438)" fill="#8bcad8"/>
      <path id="Path_193" data-name="Path 193" d="M-565.206,130.587v4.432l4.374-2.528v-4.439Z" transform="translate(745.649 154.252)" fill="#fff"/>
      <path id="Path_194" data-name="Path 194" d="M-564.842,131.419V130.7l3.44-1.984v.709Z" transform="translate(745.815 154.324)" fill="#8bcad8"/>
      <path id="Path_195" data-name="Path 195" d="M-548.285,126.862s2.511,5.279,3.551,6.75a34.807,34.807,0,0,0,6.132,5.326,8.952,8.952,0,0,0,3.9,1.01c1.039-.1,1.741.411.739.788a8.481,8.481,0,0,1-1.972.468,12.414,12.414,0,0,1,2.552,2.5c.58.925,1.074,2.625-1.172,2.133-1.815-.4-4.333-3.179-4.994-3.8-1.247-1.17-6.2-3.847-7.324-4.641-1.581-1.12-6.063-7.724-6.063-7.724S-551.559,126.167-548.285,126.862Z" transform="translate(704.101 154.111)" fill="#ffc5b3"/>
      <path id="Path_196" data-name="Path 196" d="M-538.432,117.909c1.3-1.049,4.087,2.5,5.564,4.719a30.429,30.429,0,0,1,2.663,5.535s-1.775,1.294-3.373,2.3a25.986,25.986,0,0,1-2.749,1.481S-542.9,121.508-538.432,117.909Z" transform="translate(687.039 153.118)" fill="#f4e367"/>
      <path id="Path_197" data-name="Path 197" d="M-535.44,107.443a4.05,4.05,0,0,1-3.985,1.208,8.847,8.847,0,0,1-3.078-1.134l-.368,2.4a2.134,2.134,0,0,1-.63-.232c-.037-.951-.376-1.246-.9-.964-.591.321-.616,1.676-.616,1.676a4.924,4.924,0,0,1-1.182-4.439c.376-1.689,2.655-5.026,5.836-4.729a5.864,5.864,0,0,1,5.424,4.217A2.235,2.235,0,0,1-535.44,107.443Z" transform="translate(698.742 151.308)" fill="#542727"/>
      <path id="Path_198" data-name="Path 198" d="M-542.583,104.951s4.085,2.875,4.788,3.484-3.229,3.264-6.014,2.376a32.838,32.838,0,0,1-6.978-3.987Z" transform="translate(706.528 151.718)" fill="#c7e9f4"/>
      <path id="Path_199" data-name="Path 199" d="M-535.136,105.5s-4.661,2.894-7.565,2.065a10.311,10.311,0,0,1-3.7-1.554s.252-6.077,5.6-6.077S-535.136,105.5-535.136,105.5Z" transform="translate(699.082 151.168)" fill="#8bcad8"/>
      <ellipse id="Ellipse_6" data-name="Ellipse 6" cx="0.802" cy="0.444" rx="0.802" ry="0.444" transform="translate(158.041 250.857)" fill="#c7e9f4"/>
      <path id="Path_200" data-name="Path 200" d="M-573.368,184.533l31.6,18.261-.985.619-31.7-18.3Z" transform="translate(736.838 160.446)" fill="#f4e367"/>
      <path id="Path_201" data-name="Path 201" d="M-573.56,185.05l31.7,18.3v4.51l-31.7-18.3Z" transform="translate(735.952 160.503)" fill="#d8c13d"/>
      <path id="Path_202" data-name="Path 202" d="M-573.462,205.549V200.99l-.985.615v4.507Z" transform="translate(768.534 162.251)" fill="#fff9b8"/>
      <path id="Path_203" data-name="Path 203" d="M-605.157,166.092l31.6,18.261-.985.619-31.7-18.31Z" transform="translate(803.902 158.424)" fill="#f4e367"/>
      <path id="Path_204" data-name="Path 204" d="M-605.35,166.609l31.7,18.3v4.51l-31.7-18.3Z" transform="translate(803.019 158.48)" fill="#c96a1c"/>
      <path id="Path_205" data-name="Path 205" d="M-605.255,187.107v-4.559l-.985.615v4.51Z" transform="translate(835.606 160.228)" fill="#d87923"/>
      <path id="Path_206" data-name="Path 206" d="M-589.727,174.858l31.6,18.262-.985.619-31.695-18.3Z" transform="translate(771.347 159.385)" fill="#f4e367"/>
      <path id="Path_207" data-name="Path 207" d="M-589.916,175.375l31.7,18.3v4.51l-31.7-18.3Z" transform="translate(770.458 159.442)" fill="#d8c13d"/>
      <path id="Path_208" data-name="Path 208" d="M-589.819,195.873v-4.559l-.985.615v4.506Z" transform="translate(803.042 161.19)" fill="#fff9b8"/>
      <path id="Path_209" data-name="Path 209" d="M-606.238,202.37l36.265-20.938v1.458l-36.265,20.938Z" transform="translate(800.322 160.106)" fill="#fff9b8"/>
      <path id="Path_210" data-name="Path 210" d="M-606.24,200.454l3.8,2.126,36.265-20.938-3.783-2.125Z" transform="translate(796.525 159.896)" fill="#f4e367"/>
      <path id="Path_211" data-name="Path 211" d="M-573.56,198.384l3.8,2.126v2.718l-3.8-2.213Z" transform="translate(763.846 161.965)" fill="#d8c13d"/>
      <path id="Path_212" data-name="Path 212" d="M-599.96,198.622l36.369-21.027v1.458L-599.96,200.08Z" transform="translate(786.975 159.685)" fill="#fff9b8"/>
      <path id="Path_213" data-name="Path 213" d="M-599.96,196.707l3.8,2.126,36.369-21.027-3.783-2.125Z" transform="translate(783.173 159.475)" fill="#f4e367"/>
      <path id="Path_214" data-name="Path 214" d="M-567.19,194.629l3.8,2.126v2.718l-3.8-2.213Z" transform="translate(750.407 161.553)" fill="#d8c13d"/>
      <path id="Path_215" data-name="Path 215" d="M-593.509,194.929l36.453-21.072v1.458l-36.453,21.072Z" transform="translate(773.281 159.275)" fill="#fff9b8"/>
      <path id="Path_216" data-name="Path 216" d="M-593.509,193.013l3.8,2.126,36.453-21.072-3.783-2.125Z" transform="translate(769.479 159.065)" fill="#f4e367"/>
      <path id="Path_217" data-name="Path 217" d="M-560.659,190.931l3.8,2.121v2.718l-3.8-2.213Z" transform="translate(736.629 161.148)" fill="#d8c13d"/>
      <path id="Path_218" data-name="Path 218" d="M-587.058,191.159l36.367-20.938v1.457l-36.369,20.938Z" transform="translate(759.758 158.876)" fill="#fff9b8"/>
      <path id="Path_219" data-name="Path 219" d="M-587.059,189.243l3.8,2.126,36.367-20.938-3.783-2.125Z" transform="translate(755.957 158.666)" fill="#f4e367"/>
      <path id="Path_220" data-name="Path 220" d="M-554.285,187.174l3.8,2.126v2.718l-3.8-2.213Z" transform="translate(723.182 160.736)" fill="#d8c13d"/>
      <path id="Path_221" data-name="Path 221" d="M-581.273,187.875l36.454-21.027v1.458l-36.455,21.031Z" transform="translate(747.467 158.506)" fill="#fff9b8"/>
      <path id="Path_222" data-name="Path 222" d="M-581.271,185.959l3.8,2.126,36.455-21.031-3.783-2.125Z" transform="translate(743.659 158.296)" fill="#f4e367"/>
      <path id="Path_223" data-name="Path 223" d="M-548.418,183.878l3.8,2.126v2.718l-3.8-2.213Z" transform="translate(710.805 160.374)" fill="#d8c13d"/>
      <path id="Path_224" data-name="Path 224" d="M-602.9,191.491-602.9,180.2l16.384-9.472V182Z" transform="translate(813.167 158.932)" fill="#dba763"/>
      <path id="Path_225" data-name="Path 225" d="M-564.555,191.906l-.006-11.294-23.583-13.626v11.271Z" transform="translate(774.825 158.522)" fill="#e8b679"/>
      <path id="Path_226" data-name="Path 226" d="M-602.9,167.916l23.583,13.625,16.384-9.467-23.589-13.62Z" transform="translate(789.585 157.586)" fill="#ffe1c0"/>
      <path id="Path_227" data-name="Path 227" d="M-593.76,179.865l-3.654,2.121V176l3.654-2.123Z" transform="translate(814.318 159.277)" fill="#8bcad8"/>
      <path id="Path_228" data-name="Path 228" d="M-570.185,175.223l-23.567-13.611-3.662,2.117,23.576,13.625Z" transform="translate(790.743 157.932)" fill="#c7e9f4"/>
      <path id="Path_229" data-name="Path 229" d="M-594.2,188.174v-1.054l5.5-3.19V185Z" transform="translate(805.693 160.38)" fill="#8bcad8"/>
      <path id="Path_230" data-name="Path 230" d="M-594.2,186.473v-1.054l5.5-3.186v1.07Z" transform="translate(805.693 160.194)" fill="#8bcad8"/>
      <path id="Path_231" data-name="Path 231" d="M-567.244,174.4v3.812l-2.631-1.52v-3.812Z" transform="translate(757.242 159.168)" fill="#8bcad8"/>
      <path id="Path_232" data-name="Path 232" d="M-570.474,176.272v3.812l-2.631-1.52v-3.811Z" transform="translate(764.057 159.373)" fill="#8bcad8"/>
      <path id="Path_233" data-name="Path 233" d="M-573.752,178.155v3.812l-2.631-1.52v-3.811Z" transform="translate(770.972 159.58)" fill="#8bcad8"/>
      <path id="Path_234" data-name="Path 234" d="M-582.091,179.992v5.477l-5.406-3.124v-5.484Z" transform="translate(791.644 159.605)" fill="#fff"/>
      <path id="Path_235" data-name="Path 235" d="M-582.647,181.023v-.888l-4.253-2.452v.877Z" transform="translate(791.537 159.695)" fill="#8bcad8"/>
      <path id="Path_236" data-name="Path 236" d="M-586.687,201l-.006-11.294,16.384-9.472V191.5Z" transform="translate(778.97 159.974)" fill="#dba763"/>
      <path id="Path_237" data-name="Path 237" d="M-548.345,201.41l-.006-11.294-23.583-13.626v11.271Z" transform="translate(740.627 159.564)" fill="#e8b679"/>
      <path id="Path_238" data-name="Path 238" d="M-586.693,177.425l23.583,13.625,16.384-9.472-23.589-13.62Z" transform="translate(755.387 158.628)" fill="#ffe1c0"/>
      <path id="Path_239" data-name="Path 239" d="M-577.55,189.373l-3.654,2.121V185.5l3.654-2.123Z" transform="translate(780.12 160.32)" fill="#8bcad8"/>
      <path id="Path_240" data-name="Path 240" d="M-553.975,184.731l-23.567-13.611-3.662,2.117,23.575,13.623Z" transform="translate(756.545 158.975)" fill="#c7e9f4"/>
      <path id="Path_241" data-name="Path 241" d="M-577.991,197.678v-1.054l5.5-3.19v1.07Z" transform="translate(771.495 161.422)" fill="#8bcad8"/>
      <path id="Path_242" data-name="Path 242" d="M-577.991,195.982v-1.054l5.5-3.19v1.07Z" transform="translate(771.495 161.236)" fill="#8bcad8"/>
      <path id="Path_243" data-name="Path 243" d="M-551.03,183.9v3.812l-2.631-1.52v-3.811Z" transform="translate(723.036 160.21)" fill="#8bcad8"/>
      <path id="Path_244" data-name="Path 244" d="M-554.264,185.779v3.813l-2.631-1.52v-3.811Z" transform="translate(729.859 160.416)" fill="#8bcad8"/>
      <path id="Path_245" data-name="Path 245" d="M-557.542,187.662v3.812l-2.631-1.52v-3.811Z" transform="translate(736.774 160.623)" fill="#8bcad8"/>
      <path id="Path_246" data-name="Path 246" d="M-565.881,189.5v5.477l-5.406-3.124v-5.484Z" transform="translate(757.446 160.648)" fill="#fff"/>
      <path id="Path_247" data-name="Path 247" d="M-566.437,190.53v-.888l-4.253-2.452v.877Z" transform="translate(757.339 160.737)" fill="#8bcad8"/>
      <path id="Path_248" data-name="Path 248" d="M-602.9,180.263l-.006-11.294,16.384-9.476v11.274Z" transform="translate(813.167 157.7)" fill="#dba763"/>
      <path id="Path_249" data-name="Path 249" d="M-564.555,180.672l-.006-11.294-23.583-13.626v11.271Z" transform="translate(774.825 157.289)" fill="#e8b679"/>
      <path id="Path_250" data-name="Path 250" d="M-602.9,156.689l23.583,13.626,16.384-9.472-23.589-13.62Z" transform="translate(789.585 156.354)" fill="#ffe1c0"/>
      <path id="Path_251" data-name="Path 251" d="M-593.76,168.636l-3.654,2.121v-5.984l3.654-2.123Z" transform="translate(814.318 158.046)" fill="#8bcad8"/>
      <path id="Path_252" data-name="Path 252" d="M-570.185,163.994l-23.567-13.611-3.662,2.117,23.576,13.625Z" transform="translate(790.743 156.701)" fill="#c7e9f4"/>
      <path id="Path_253" data-name="Path 253" d="M-594.2,176.944V175.89l5.5-3.19v1.07Z" transform="translate(805.693 159.148)" fill="#8bcad8"/>
      <path id="Path_254" data-name="Path 254" d="M-594.2,175.244V174.19l5.5-3.19v1.07Z" transform="translate(805.693 158.962)" fill="#8bcad8"/>
      <path id="Path_255" data-name="Path 255" d="M-567.244,163.171v3.812l-2.631-1.52v-3.811Z" transform="translate(757.242 157.937)" fill="#8bcad8"/>
      <path id="Path_256" data-name="Path 256" d="M-570.474,165.043v3.812l-2.631-1.52v-3.811Z" transform="translate(764.057 158.142)" fill="#8bcad8"/>
      <path id="Path_257" data-name="Path 257" d="M-573.752,166.926v3.812l-2.631-1.52v-3.812Z" transform="translate(770.972 158.348)" fill="#8bcad8"/>
      <path id="Path_258" data-name="Path 258" d="M-582.091,168.764v5.475l-5.406-3.124v-5.484Z" transform="translate(791.644 158.373)" fill="#fff"/>
      <path id="Path_259" data-name="Path 259" d="M-582.647,169.791V168.9l-4.253-2.452v.877Z" transform="translate(791.537 158.463)" fill="#8bcad8"/>
      <path id="Path_260" data-name="Path 260" d="M-586.687,189.77l-.006-11.294L-570.309,169v11.271Z" transform="translate(778.97 158.743)" fill="#dba763"/>
      <path id="Path_261" data-name="Path 261" d="M-548.345,190.181l-.006-11.294-23.583-13.626v11.271Z" transform="translate(740.627 158.332)" fill="#e8b679"/>
      <path id="Path_262" data-name="Path 262" d="M-586.693,166.2l23.583,13.625,16.384-9.472-23.589-13.62Z" transform="translate(755.387 157.397)" fill="#ffe1c0"/>
      <path id="Path_263" data-name="Path 263" d="M-577.55,178.144l-3.654,2.121V174.28l3.654-2.123Z" transform="translate(780.12 159.089)" fill="#8bcad8"/>
      <path id="Path_264" data-name="Path 264" d="M-553.975,173.5l-23.567-13.611-3.662,2.117,23.575,13.628Z" transform="translate(756.545 157.743)" fill="#c7e9f4"/>
      <path id="Path_265" data-name="Path 265" d="M-577.991,186.452V185.4l5.5-3.19v1.07Z" transform="translate(771.495 160.191)" fill="#8bcad8"/>
      <path id="Path_266" data-name="Path 266" d="M-577.991,184.753V183.7l5.5-3.19v1.07Z" transform="translate(771.495 160.005)" fill="#8bcad8"/>
      <path id="Path_267" data-name="Path 267" d="M-551.03,172.674v3.812l-2.631-1.52v-3.811Z" transform="translate(723.036 158.979)" fill="#8bcad8"/>
      <path id="Path_268" data-name="Path 268" d="M-554.264,174.55v3.817l-2.631-1.52v-3.811Z" transform="translate(729.859 159.185)" fill="#8bcad8"/>
      <path id="Path_269" data-name="Path 269" d="M-557.542,176.433v3.812l-2.631-1.52v-3.811Z" transform="translate(736.774 159.391)" fill="#8bcad8"/>
      <path id="Path_270" data-name="Path 270" d="M-565.881,178.271v5.477l-5.406-3.124v-5.484Z" transform="translate(757.446 159.416)" fill="#fff"/>
      <path id="Path_271" data-name="Path 271" d="M-566.437,179.3v-.888l-4.253-2.452v.877Z" transform="translate(757.339 159.506)" fill="#8bcad8"/>
      <path id="Path_272" data-name="Path 272" d="M-551.916,178.115l.008-14.166-20.551-11.88v14.137Z" transform="translate(744.774 156.886)" fill="#dba763"/>
      <path id="Path_273" data-name="Path 273" d="M-599.116,178.634l.008-14.166,29.579-17.089v14.137Z" transform="translate(791.975 156.371)" fill="#e8b679"/>
      <path id="Path_274" data-name="Path 274" d="M-548.984,148.551l-29.579,17.089-20.551-11.88,29.588-17.089Z" transform="translate(771.43 155.197)" fill="#ffe1c0"/>
      <path id="Path_275" data-name="Path 275" d="M-564.954,163.536l4.583,2.663v-7.506l-4.583-2.663Z" transform="translate(744.909 157.32)" fill="#8bcad8"/>
      <path id="Path_276" data-name="Path 276" d="M-591.6,157.711l29.559-17.072,4.594,2.655-29.571,17.089Z" transform="translate(771.557 155.632)" fill="#c7e9f4"/>
      <path id="Path_277" data-name="Path 277" d="M-564.172,173.957v-1.322l-6.9-4v1.342Z" transform="translate(755.498 158.702)" fill="#8bcad8"/>
      <path id="Path_278" data-name="Path 278" d="M-564.172,171.827V170.5l-6.9-4v1.342Z" transform="translate(755.498 158.469)" fill="#8bcad8"/>
      <path id="Path_279" data-name="Path 279" d="M-598.345,156.676v4.78l3.3-1.906v-4.78Z" transform="translate(816.637 157.182)" fill="#8bcad8"/>
      <path id="Path_280" data-name="Path 280" d="M-594.287,159.029v4.78l3.3-1.906v-4.78Z" transform="translate(808.076 157.44)" fill="#8bcad8"/>
      <path id="Path_281" data-name="Path 281" d="M-590.176,161.39v4.78l3.3-1.906v-4.781Z" transform="translate(799.403 157.699)" fill="#8bcad8"/>
      <path id="Path_282" data-name="Path 282" d="M-579.375,163.7v6.87l6.781-3.918v-6.88Z" transform="translate(773.134 157.73)" fill="#fff"/>
      <path id="Path_283" data-name="Path 283" d="M-578.82,164.99v-1.119l5.335-3.076v1.1Z" transform="translate(773.409 157.843)" fill="#8bcad8"/>
      <path id="Path_284" data-name="Path 284" d="M-579.868,163.273V154.98l-13.269-7.671v8.274Z" transform="translate(795.679 156.364)" fill="#dba763"/>
      <path id="Path_285" data-name="Path 285" d="M-610.348,163.606v-8.293l19.1-11.036v8.274Z" transform="translate(826.16 156.031)" fill="#e8b679"/>
      <path id="Path_286" data-name="Path 286" d="M-577.984,145.048l-19.1,11.035-13.27-7.671,19.105-11.031Z" transform="translate(812.899 155.275)" fill="#ffe1c0"/>
      <path id="Path_287" data-name="Path 287" d="M-587.79,160.67v-.853l-4.454-2.583v.866Z" transform="translate(802.611 157.452)" fill="#8bcad8"/>
      <path id="Path_288" data-name="Path 288" d="M-587.79,159.294v-.853l-4.454-2.583v.866Z" transform="translate(802.611 157.301)" fill="#8bcad8"/>
      <path id="Path_289" data-name="Path 289" d="M-609.774,147.449V151.3l2.658-1.536v-3.851Z" transform="translate(841.39 156.21)" fill="#8bcad8"/>
      <path id="Path_290" data-name="Path 290" d="M-606.506,149.344v3.851l2.658-1.536v-3.851Z" transform="translate(834.495 156.418)" fill="#8bcad8"/>
      <path id="Path_291" data-name="Path 291" d="M-600.188,155.4V160l6.781-3.918v-4.6Z" transform="translate(817.043 156.82)" fill="#fff"/>
      <path id="Path_292" data-name="Path 292" d="M-599.633,156.694v-1.119l5.335-3.076v1.1Z" transform="translate(817.318 156.933)" fill="#8bcad8"/>
      <path id="Path_293" data-name="Path 293" d="M-588.334,153.417l4.583,2.663v-4.36l-4.583-2.663Z" transform="translate(794.233 156.555)" fill="#8bcad8"/>
      <path id="Path_294" data-name="Path 294" d="M-605.547,150.144l19.075-11.032,4.609,2.663-19.1,11.04Z" transform="translate(811.446 155.465)" fill="#c7e9f4"/>
      <path id="Path_295" data-name="Path 295" d="M-616.312,157.173c-1.1-3.736-1.664-7.85.194-10.875l4.041.1a29.761,29.761,0,0,1,2.049,6.194,5.576,5.576,0,0,1-1.246,5.162c-1.054,1.255-4.807-.418-4.947-.513Z" transform="translate(852.499 156.253)" fill="#ffc5b3"/>
      <path id="Path_296" data-name="Path 296" d="M-597.206,208.569s-4.339-1.934-6.485-2.027-2.355,2.429,0,4.383,4.157,2.219,6.083,3.008c1.737.714,2.36.769,3.745-.129,1.849-1.2.369-4.368.369-4.368Z" transform="translate(822.33 162.86)" fill="#8bcad8"/>
      <path id="Path_297" data-name="Path 297" d="M-609.12,201.82a21.8,21.8,0,0,0-5.593-1.534c-2.146-.092-2.916,1.763-.562,3.717a17.747,17.747,0,0,0,5.755,3.18c1.737.714,2.35.755,3.745-.129,1.9-1.205.415-4.374.367-4.368Z" transform="translate(846.79 162.173)" fill="#8bcad8"/>
      <path id="Path_298" data-name="Path 298" d="M-612.93,163.3s-3.787,20.459-3.787,26.884c0,11.329.1,23.26.1,23.26s1.876,1.972,3.7,1.976c4.114.011,4.529-2.058,4.529-2.058s.057-13.5.415-19.636c.249-4.267.5-10.278,2.213-15.237.05,5.092.037,6.726.454,12.271.308,4.091,2.012,15.072,2.108,15.787,1.3,1.575,5.345,2.663,7.394.356-.16-1.808-1.3-14.492-1.148-21.068.136-6.042,1.677-20.351-1.776-23.139C-601.714,160.284-612.93,163.3-612.93,163.3Z" transform="translate(837.779 157.948)" fill="#c7e9f4"/>
      <path id="Path_299" data-name="Path 299" d="M-615.555,152.547a27.126,27.126,0,0,1,.651-4.772l-2.014-6.405s2.823-1.432,4.73.843a43.373,43.373,0,0,1,3.52,6.436A8.186,8.186,0,0,1-615.555,152.547Z" transform="translate(850.868 155.663)" fill="#f4e367"/>
      <path id="Path_300" data-name="Path 300" d="M-607.523,130.06a3.976,3.976,0,0,1,5.432,1.455,3.852,3.852,0,0,1,.238.485c.7,1.474-.287,5.437-.444,8.212a6.773,6.773,0,0,0,.625,3.538l-1.923.792a5.8,5.8,0,0,1-3.928,0l.061-3.42a9.11,9.11,0,0,1-2.434-.64c-.872-.8-1.332-3.178-.93-6.247C-610.222,129.668-608.079,130.447-607.523,130.06Z" transform="translate(837.211 154.413)" fill="#ffc5b3"/>
      <path id="Path_301" data-name="Path 301" d="M-614.849,153.354c-1.135-2.424,1.443-6.82,2.161-8.4a6.532,6.532,0,0,1,3.033-2.542,38.608,38.608,0,0,1,4.26-1.309c.482-.072,2.144-.178,2.144-.178s3.674,5.78,4.083,8.964c.284,2.23-.931,9.518-.03,16.7.477,3.8-13.854,2.728-15.117,1.178C-613.582,164.167-612.524,158.306-614.849,153.354Z" transform="translate(839.346 155.663)" fill="#fff291"/>
      <path id="Path_302" data-name="Path 302" d="M-599.985,154.479a46.408,46.408,0,0,0,.206,7.645c.456,2.862.733,7.287.733,7.287s-4.075,3.17-8.782,2.62a16.542,16.542,0,0,1-7.966-3.292s1.565-8.053,1.476-9.042l-.088-.988a4.548,4.548,0,0,0,2.948.375,5.411,5.411,0,0,0,3.63-4.27,44.133,44.133,0,0,0,.046-8.175c.231-.032,6.077-1.752,6.077-1.752A38.576,38.576,0,0,1-599.985,154.479Z" transform="translate(839.999 156.098)" fill="#c7e9f4"/>
      <path id="Path_303" data-name="Path 303" d="M-612.163,135.619c-.23-.766-.752-2.546-.888-3.262a3.49,3.49,0,0,1,.94-3.252c1.138-1.183,5.082-1.564,6.509-.739s4.461,2.33,3.4,7.253c-.857,3.977-1.688,4.423-2.885,5.356a6.858,6.858,0,0,1-2.9,1.019,3.415,3.415,0,0,1-1.221-2.25c-.059-.475,0-1.913,0-1.913s1.051-2.08.236-2.821c-.867-.789-1.753.466-1.957.973C-611.631,137.76-612.336,138.595-612.163,135.619Z" transform="translate(839.987 154.237)" fill="#542727"/>
      <path id="Path_304" data-name="Path 304" d="M-604.772,158.192a29.145,29.145,0,0,0,8.343-.872,23.341,23.341,0,0,0,5.237-2.157,35.545,35.545,0,0,0,1.517-3.916l5.262,2.145s-1.332,3.551-2.108,5.172c-.626,1.3-1.408,1.564-2.656,2.023-1.822.666-7.164.857-9.291,1.132a11.838,11.838,0,0,1-4.692-.251C-605.73,160.847-604.874,158.906-604.772,158.192Z" transform="translate(813.379 156.795)" fill="#ffc5b3"/>
      <path id="Path_305" data-name="Path 305" d="M-599.549,155.864a6.515,6.515,0,0,1-6.594-2.146c1.018-4.6,2.637-9.6,4.855-10.339,1.192-.4,3.329,3.736,2.964,6.665C-598.427,150.868-598.928,153.173-599.549,155.864Z" transform="translate(828.526 155.93)" fill="#f4e367"/>
      <path id="Path_306" data-name="Path 306" d="M-599.38,163.419l.185,2.022s-2.734,2.351-8.64,2.485-7.831-1.886-7.831-1.886l.348-2.08a15.888,15.888,0,0,0,7.648,1.991A15.528,15.528,0,0,0-599.38,163.419Z" transform="translate(840.007 158.13)" fill="#8bcad8"/>
      <path id="Path_307" data-name="Path 307" d="M-604.028,147.547a10.393,10.393,0,0,0-1.886-3.9,4.765,4.765,0,0,0-2.378-1.388s-1.208.333-1.191.68a5.976,5.976,0,0,1,2.578,2.05,16.521,16.521,0,0,1,1.244,3.755Z" transform="translate(837.978 155.81)" fill="#c7e9f4"/>
      <path id="Path_308" data-name="Path 308" d="M-612.726,140.922a14.617,14.617,0,0,1,1.92,4.217,37.167,37.167,0,0,1,.727,3.755l-1.141.143s-1.094-4.232-1.713-5.759a17.8,17.8,0,0,0-1.072-2.28Z" transform="translate(849.047 155.663)" fill="#c7e9f4"/>
      <path id="Path_309" data-name="Path 309" d="M-586.553,158.274a19.787,19.787,0,0,1-1.982-1.874c-.5-.578-.909-.433-.743.222a7.132,7.132,0,0,0,1.032,1.765s1.261-.111,1.477-.111Z" transform="translate(798.123 157.321)" fill="#ffc5b3"/>
      <path id="Path_310" data-name="Path 310" d="M-610.169,129.1c-2.885.3-4.021,2.193-2.552,4.223s5,3.43,7.885,3.128,4.021-2.194,2.552-4.223S-607.288,128.8-610.169,129.1Z" transform="translate(839.898 154.362)" fill="#8bcad8"/>
      <path id="Path_311" data-name="Path 311" d="M-601.949,134.785s1.713-5.846-3.48-7.609c-3.732-1.268-6.537.211-8.051,4.041C-614.4,133.551-601.949,134.785-601.949,134.785Z" transform="translate(840.119 154.107)" fill="#8bcad8"/>
      <path id="Path_312" data-name="Path 312" d="M-599.235,134.764c-.378-.213-2.138-2.422-1.65-4.431a12.283,12.283,0,0,1,.722-1.426s-.52-.276-2.663.176-2.536,2.37-.878,3.716A9.468,9.468,0,0,0-599.235,134.764Z" transform="translate(827.911 154.336)" fill="#c7e9f4"/>
    </g>
    <g id="Group_1-2" data-name="Group 1" transform="translate(1561 642)">
      <path id="Path_1-2" data-name="Path 1" d="M-452.077,114.954l7.706,4.561c2.371,1.443,2.031,4.048-.76,5.819l-8.956,5.791c-2.768,1.787-6.955,2.08-9.356.656l-7.653-4.53c-2.358-1.453-2.043-4.052.71-5.851l8.954-5.789C-458.662,113.824-454.475,113.532-452.077,114.954Zm-9.4,15.244a6.309,6.309,0,0,0,6.022-.427c1.781-1.151,1.97-2.825.424-3.741a6.317,6.317,0,0,0-6.023.427C-462.83,127.609-463.019,129.283-461.472,130.2Zm8.273-5.349a6.321,6.321,0,0,0,6.025-.428c1.779-1.15,1.97-2.826.423-3.741a6.314,6.314,0,0,0-6.022.426C-454.554,122.258-454.746,123.933-453.2,124.849Zm-15.553,1.04a6.317,6.317,0,0,0,6.025-.425c1.78-1.152,1.968-2.827.421-3.742a6.315,6.315,0,0,0-6.022.426C-470.109,123.3-470.3,124.975-468.752,125.889Zm8.274-5.349a6.322,6.322,0,0,0,6.026-.427c1.779-1.15,1.969-2.827.422-3.742a6.319,6.319,0,0,0-6.023.426C-461.833,117.949-462.023,119.625-460.478,120.54Z" transform="translate(472.677 -114.053)" fill="#9b0d73"/>
    </g>
    <path id="Path_2-2" data-name="Path 2" d="M1588.892,652.473l1.961-2.931v-3.177l-6.159-1.946,2.033,2.8,2.165,1.461-6.734,5.352Z" fill="#9b0d73"/>
    <path id="Path_3-2" data-name="Path 3" d="M1579.252,642.306c.026-.079,5.811,1.294,5.758,1.162a51.939,51.939,0,0,0-5.758-3.248c-.343.026-4.489.264-4.595.343s0,.211-.871.739-1.083.238-1.611,1-1.45,2.113-.764,2.034,4.859-1.479,6.073-1.664A11.8,11.8,0,0,0,1579.252,642.306Z" fill="#9b0d73"/>
    <path id="Path_4-2" data-name="Path 4" d="M1574.686,659.655c.739,0,1.054-.529,2.48-1.268s1.716-.422,2.192-1.083.554-.423.581-.924,1.109-.845-.132-.819-1.4-.66-2.746,0a9.826,9.826,0,0,1-2.482,1.188c-1.558.475-4.514-.369-4.672.238s1.505,2.456,2.429,2.667A8,8,0,0,0,1574.686,659.655Z" fill="#9b0d73"/>
    <path id="Path_5-2" data-name="Path 5" d="M1562.016,653.547l.849.969-1.422-2.139-.427.358v-3.12s.934-1.178,1.077-.914a3.406,3.406,0,0,1,.772,1.95c.122,1.28,5.2,4.381,5.2,4.381" fill="#9b0d73"/>
    <path id="Path_6-2" data-name="Path 6" d="M1572.23,653.952s-1.664.026-1.848,0-.739.132-.238-.475,1.69-2.086,1.954-2.3,1.109-.819,1.109-.819v2.35Z" fill="#9b0d73"/>
    <path id="Path_7-2" data-name="Path 7" d="M1563.593,650.069l-.555-1.03s.317-1.083.4-1.347-.317-.264.739-1.03a5.254,5.254,0,0,1,2.482-1.056,5.935,5.935,0,0,1,1.875-.158,15.188,15.188,0,0,1,2.3.555c1.083.317,1.69.475,2.773.871s1.109.475,1.716.475a2.738,2.738,0,0,0,1.531-.238c.713-.317,2.641-.924,3.01-1.109s1.69-.766,1.69-.766a.714.714,0,0,1,.238.581c.026.449,1.083.238,0,1.188s1.268.291-1.928,1.347-2.8,1.083-4.093,1.162-1.452.132-2.165-.264a11.081,11.081,0,0,0-1.69-.9c-.9-.37-.686-.739-1.716-.66s-.5-.555-2.007,0-1.135-.264-2.245.66-1,.713-1.426,1.294A.866.866,0,0,1,1563.593,650.069Z" fill="#9b0d73"/>
    <g id="Group_1-3" data-name="Group 1" transform="translate(1561 639)">
      <path id="Path_1-3" data-name="Path 1" d="M-452.077,114.954l7.706,4.561c2.371,1.443,2.031,4.048-.76,5.819l-8.956,5.791c-2.768,1.787-6.955,2.08-9.356.656l-7.653-4.53c-2.358-1.453-2.043-4.052.71-5.851l8.954-5.789C-458.662,113.824-454.475,113.532-452.077,114.954Zm-9.4,15.244a6.309,6.309,0,0,0,6.022-.427c1.781-1.151,1.97-2.825.424-3.741a6.317,6.317,0,0,0-6.023.427C-462.83,127.609-463.019,129.283-461.472,130.2Zm8.273-5.349a6.321,6.321,0,0,0,6.025-.428c1.779-1.15,1.97-2.826.423-3.741a6.314,6.314,0,0,0-6.022.426C-454.554,122.258-454.746,123.933-453.2,124.849Zm-15.553,1.04a6.317,6.317,0,0,0,6.025-.425c1.78-1.152,1.968-2.827.421-3.742a6.315,6.315,0,0,0-6.022.426C-470.109,123.3-470.3,124.975-468.752,125.889Zm8.274-5.349a6.322,6.322,0,0,0,6.026-.427c1.779-1.15,1.969-2.827.422-3.742a6.319,6.319,0,0,0-6.023.426C-461.833,117.949-462.023,119.625-460.478,120.54Z" transform="translate(472.677 -114.053)" fill="#fff"/>
    </g>
  </g>
</svg>
