<svg id="Menu" xmlns="http://www.w3.org/2000/svg" width="21.937" height="21.937" viewBox="0 0 21.937 21.937">
  <path id="Path_223" data-name="Path 223" d="M1,5.078a11.105,11.105,0,0,0,.18,2.314,2.094,2.094,0,0,0,.507,1.077,2.094,2.094,0,0,0,1.077.507,11.105,11.105,0,0,0,2.314.18,11.105,11.105,0,0,0,2.314-.18,2.094,2.094,0,0,0,1.077-.507,2.094,2.094,0,0,0,.507-1.077,11.105,11.105,0,0,0,.18-2.314,11.105,11.105,0,0,0-.18-2.314,2.094,2.094,0,0,0-.507-1.077A2.094,2.094,0,0,0,7.392,1.18,11.105,11.105,0,0,0,5.078,1a11.105,11.105,0,0,0-2.314.18,2.094,2.094,0,0,0-1.077.507A2.094,2.094,0,0,0,1.18,2.764,11.105,11.105,0,0,0,1,5.078Z" fill="none" stroke="#F996AE" stroke-linecap="round" stroke-linejoin="round" stroke-width="2"/>
  <path id="Path_224" data-name="Path 224" d="M1,18.078a11.105,11.105,0,0,0,.18,2.314,2.1,2.1,0,0,0,.507,1.077,2.1,2.1,0,0,0,1.077.507,11.111,11.111,0,0,0,2.314.18,11.111,11.111,0,0,0,2.314-.18,2.1,2.1,0,0,0,1.077-.507,2.1,2.1,0,0,0,.507-1.077,11.105,11.105,0,0,0,.18-2.314,11.105,11.105,0,0,0-.18-2.314,2.1,2.1,0,0,0-.507-1.077,2.1,2.1,0,0,0-1.077-.507A11.111,11.111,0,0,0,5.078,14a11.111,11.111,0,0,0-2.314.18,2.1,2.1,0,0,0-1.077.507,2.1,2.1,0,0,0-.507,1.077A11.105,11.105,0,0,0,1,18.078Z" transform="translate(0 -1.219)" fill="none" stroke="#F996AE" stroke-linecap="round" stroke-linejoin="round" stroke-width="2"/>
  <path id="Path_225" data-name="Path 225" d="M14,5.078a11.111,11.111,0,0,0,.18,2.314,2.1,2.1,0,0,0,.507,1.077,2.1,2.1,0,0,0,1.077.507,11.105,11.105,0,0,0,2.314.18,11.105,11.105,0,0,0,2.314-.18,2.1,2.1,0,0,0,1.077-.507,2.1,2.1,0,0,0,.507-1.077,11.111,11.111,0,0,0,.18-2.314,11.111,11.111,0,0,0-.18-2.314,2.1,2.1,0,0,0-.507-1.077,2.1,2.1,0,0,0-1.077-.507A11.105,11.105,0,0,0,18.078,1a11.105,11.105,0,0,0-2.314.18,2.1,2.1,0,0,0-1.077.507,2.1,2.1,0,0,0-.507,1.077A11.111,11.111,0,0,0,14,5.078Z" transform="translate(-1.219)" fill="none" stroke="#F996AE" stroke-linecap="round" stroke-linejoin="round" stroke-width="2"/>
  <path id="Path_226" data-name="Path 226" d="M14,18.078a11.111,11.111,0,0,0,.18,2.314,2.1,2.1,0,0,0,.507,1.077,2.1,2.1,0,0,0,1.077.507,11.111,11.111,0,0,0,2.314.18,11.111,11.111,0,0,0,2.314-.18,1.76,1.76,0,0,0,1.584-1.584,11.111,11.111,0,0,0,.18-2.314,11.111,11.111,0,0,0-.18-2.314,2.1,2.1,0,0,0-.507-1.077,2.1,2.1,0,0,0-1.077-.507A11.111,11.111,0,0,0,18.078,14a11.111,11.111,0,0,0-2.314.18,2.1,2.1,0,0,0-1.077.507,2.1,2.1,0,0,0-.507,1.077A11.111,11.111,0,0,0,14,18.078Z" transform="translate(-1.219 -1.219)" fill="none" stroke="#F996AE" stroke-linecap="round" stroke-linejoin="round" stroke-width="2"/>
</svg>
