<svg id="FAQ" xmlns="http://www.w3.org/2000/svg" width="22" height="22" viewBox="0 0 22 22">
  <path id="Path_132" data-name="Path 132" d="M12,6a3.265,3.265,0,0,0-2.247.786A2.261,2.261,0,0,0,9,8.455a3.145,3.145,0,0,0,1.211,2.2l.026.025c.564.545.763.774.763,1.053a.923.923,0,0,0,1,.818.923.923,0,0,0,1-.818A2.959,2.959,0,0,0,11.849,9.7l-.086-.082C11.239,9.111,11,8.824,11,8.455a.788.788,0,0,1,.247-.581A1.054,1.054,0,0,1,12,7.636a1.054,1.054,0,0,1,.753.237A.788.788,0,0,1,13,8.455a.923.923,0,0,0,1,.818.923.923,0,0,0,1-.818,2.261,2.261,0,0,0-.753-1.669A3.265,3.265,0,0,0,12,6Zm0,7.364a.923.923,0,0,0-1,.818A.923.923,0,0,0,12,15a.923.923,0,0,0,1-.818A.923.923,0,0,0,12,13.364Z" transform="translate(-1)" fill="#f996ae" fill-rule="evenodd"/>
  <path id="Path_133" data-name="Path 133" d="M1,11a25.3,25.3,0,0,0,.42,5.3,5.63,5.63,0,0,0,1.4,2.883A5.63,5.63,0,0,0,5.7,20.58,25.308,25.308,0,0,0,11,21a25.307,25.307,0,0,0,5.3-.42,5.63,5.63,0,0,0,2.883-1.4,5.63,5.63,0,0,0,1.4-2.883A25.307,25.307,0,0,0,21,11a25.308,25.308,0,0,0-.42-5.3,5.63,5.63,0,0,0-1.4-2.883A5.63,5.63,0,0,0,16.3,1.42,25.3,25.3,0,0,0,11,1a25.3,25.3,0,0,0-5.3.42,5.63,5.63,0,0,0-2.883,1.4A5.63,5.63,0,0,0,1.42,5.7,25.3,25.3,0,0,0,1,11Z" fill="none" stroke="#f996ae" stroke-linecap="round" stroke-linejoin="round" stroke-width="2"/>
</svg>
