<svg xmlns="http://www.w3.org/2000/svg" width="22" height="22" viewBox="0 0 22 22">
  <g id="Group_82" data-name="Group 82" transform="translate(-1805 -451)">
    <g id="Add" transform="translate(1806 452)">
      <path id="Path_10" data-name="Path 10" d="M1,11a25.3,25.3,0,0,0,.42,5.3,5.63,5.63,0,0,0,1.4,2.883A5.63,5.63,0,0,0,5.7,20.58,25.308,25.308,0,0,0,11,21a25.307,25.307,0,0,0,5.3-.42,5.63,5.63,0,0,0,2.883-1.4,5.63,5.63,0,0,0,1.4-2.883A25.307,25.307,0,0,0,21,11a25.308,25.308,0,0,0-.42-5.3,5.63,5.63,0,0,0-1.4-2.883A5.63,5.63,0,0,0,16.3,1.42,25.3,25.3,0,0,0,11,1a25.3,25.3,0,0,0-5.3.42,5.63,5.63,0,0,0-2.883,1.4A5.63,5.63,0,0,0,1.42,5.7,25.3,25.3,0,0,0,1,11Z" transform="translate(-1 -1)" fill="none" stroke="#f996ae" stroke-linecap="round" stroke-linejoin="round" stroke-width="2"/>
    </g>
    <g id="Upload_1" data-name="Upload 1" transform="translate(1811 452.909)">
      <path id="Path_380" data-name="Path 380" d="M9.091,4.545,4.545,0m0,0L0,4.545M4.545,0V12.727" transform="translate(9.091 12.727) rotate(180)" fill="none" stroke="#f996ae" stroke-linecap="round" stroke-linejoin="round" stroke-width="2"/>
    </g>
  </g>
</svg>
