<svg id="Copy" xmlns="http://www.w3.org/2000/svg" width="22" height="22" viewBox="0 0 22 22">
  <path id="Path_80" data-name="Path 80" d="M1,13.05a21.371,21.371,0,0,0,.353,4.471A4.647,4.647,0,0,0,2.505,19.9a4.647,4.647,0,0,0,2.381,1.152,21.371,21.371,0,0,0,4.471.353,21.37,21.37,0,0,0,4.471-.353A4.647,4.647,0,0,0,16.211,19.9a4.647,4.647,0,0,0,1.152-2.381,21.369,21.369,0,0,0,.353-4.471,21.37,21.37,0,0,0-.353-4.471A4.647,4.647,0,0,0,16.211,6.2a4.647,4.647,0,0,0-2.381-1.152,21.372,21.372,0,0,0-4.471-.353,21.373,21.373,0,0,0-4.471.353A4.647,4.647,0,0,0,2.505,6.2,4.647,4.647,0,0,0,1.353,8.579,21.373,21.373,0,0,0,1,13.05Z" transform="translate(0 -0.408)" fill="none" stroke="#f996ae" stroke-linecap="round" stroke-linejoin="round" stroke-width="2"/>
  <path id="Path_81" data-name="Path 81" d="M19.039,14.322c-.031.746-.087,1.422-.173,2.035,2.842-.869,3.576-3.053,3.576-7.928C22.442,1.686,20.757,0,14.014,0,9.139,0,6.954.734,6.086,3.576,6.7,3.49,7.375,3.434,8.12,3.4a2.167,2.167,0,0,1,.368-.5,3.259,3.259,0,0,1,1.677-.779,18.509,18.509,0,0,1,3.849-.3c3.384,0,4.768.467,5.451,1.151s1.151,2.067,1.151,5.451a18.51,18.51,0,0,1-.3,3.849,3.259,3.259,0,0,1-.779,1.677A2.166,2.166,0,0,1,19.039,14.322Z" transform="translate(-0.442 0)" fill="#f996ae" fill-rule="evenodd"/>
</svg>
