<svg xmlns="http://www.w3.org/2000/svg" width="22" height="22" viewBox="0 0 22 22">
  <g id="Group_25" data-name="Group 25" transform="translate(-1987 208)">
    <g id="iPhone_Pro_Max_1" data-name="iPhone Pro Max 1" transform="translate(1988 -207)">
      <path id="Path_428" data-name="Path 428" d="M1,11a25.3,25.3,0,0,0,.42,5.3,5.63,5.63,0,0,0,1.4,2.883A5.63,5.63,0,0,0,5.7,20.58,25.308,25.308,0,0,0,11,21a25.307,25.307,0,0,0,5.3-.42,5.63,5.63,0,0,0,2.883-1.4,5.63,5.63,0,0,0,1.4-2.883A25.307,25.307,0,0,0,21,11a25.308,25.308,0,0,0-.42-5.3,5.63,5.63,0,0,0-1.4-2.883A5.63,5.63,0,0,0,16.3,1.42,25.3,25.3,0,0,0,11,1a25.3,25.3,0,0,0-5.3.42,5.63,5.63,0,0,0-2.883,1.4A5.63,5.63,0,0,0,1.42,5.7,25.3,25.3,0,0,0,1,11Z" transform="translate(-1 -1)" fill="none" stroke="#f996ae" stroke-linecap="round" stroke-linejoin="round" stroke-width="2"/>
      <path id="Path_429" data-name="Path 429" d="M9,19h6" transform="translate(-2 -9.909)" fill="none" stroke="#f996ae" stroke-linecap="round" stroke-linejoin="round" stroke-width="2"/>
      <path id="Path_443" data-name="Path 443" d="M9,19H27.366" transform="translate(-8.183 -13.545)" fill="none" stroke="#f996ae" stroke-linecap="round" stroke-linejoin="round" stroke-width="2"/>
    </g>
  </g>
</svg>
