<svg xmlns="http://www.w3.org/2000/svg" width="23" height="20.272" viewBox="0 0 23 20.272">
  <g id="Megaphone" transform="translate(0 0.005)">
    <path id="Path_221" data-name="Path 221" d="M4.717,12.458a3.723,3.723,0,0,1,0-7.447H5.943M4.717,12.458S6,16.923,6.455,18.288a1.4,1.4,0,0,0,2.727-.455V12.695m-4.465-.237H5.943m3.239.237c2.589.592,4.988,2.171,7.3,3.327C21.1,18.339,21,10.991,21,8.734s.1-9.6-4.522-7.288c-2.9,1.45-5.933,3.564-9.309,3.564H5.943m3.239,7.684a9,9,0,0,0-2.013-.237H5.943m0,0V5.011" transform="translate(0 0)" fill="none" stroke="#f996ae" stroke-width="2"/>
    <path id="Path_222" data-name="Path 222" d="M24,7v5" transform="translate(-2 -0.696)" fill="none" stroke="#f996ae" stroke-linecap="round" stroke-linejoin="round" stroke-width="2"/>
  </g>
</svg>
